<?xml version="1.0" encoding="utf-8"?><svg xmlns="http://www.w3.org/2000/svg" xmlns:xlink="http://www.w3.org/1999/xlink"><symbol viewBox="0 0 22 24" id="basket" xmlns="http://www.w3.org/2000/svg"><g clip-path="url(#aba)"><path d="M10.363 18.443a2.046 2.046 0 0 0-2.045 2.042 2.046 2.046 0 0 0 4.09 0 2.046 2.046 0 0 0-2.045-2.042Zm6.134 0a2.046 2.046 0 0 0-2.045 2.042 2.046 2.046 0 0 0 4.089 0 2.046 2.046 0 0 0-2.044-2.042Zm3.978-8.199L7.413 6.891a.614.614 0 0 0-.75.73L8.67 16.4h-.786L5.482 5.895a.613.613 0 0 0-.474-.464l-4.27-.882A.614.614 0 0 0 .489 5.75l3.885.802L6.797 17.15a.613.613 0 0 0 .598.477h12.07a.615.615 0 0 0 .607-.53l.858-6.175a.613.613 0 0 0-.455-.678Zm-8.14 3.91a.613.613 0 0 1-1.227 0v-2.696a.613.613 0 0 1 1.227 0v2.696Zm2.625 0a.613.613 0 0 1-1.227 0v-1.88a.613.613 0 0 1 1.227 0v1.88Zm2.625 0a.613.613 0 0 1-1.227 0v-1.226a.613.613 0 0 1 1.227 0v1.226Z"/></g><path fill-rule="evenodd" clip-rule="evenodd" d="M16.268 4.568a2.996 2.996 0 0 0-1.693-.523c-.627 0-1.21.193-1.693.523-.28-.843-.492-1.752-.492-2.383C12.39.98 13.37 0 14.575 0s2.185.98 2.185 2.185c0 .631-.212 1.54-.492 2.383Zm-4.722 2.274.024.006v-.011l-.024.005Zm4.972 1.217c-1.333-.33-2.766-.681-4.129-1.013a2.185 2.185 0 1 1 4.129 1.013Zm4.436 1.103c-.866-.217-2.155-.538-3.618-.9a2.995 2.995 0 0 0 .243-1.425c.87.18 1.762.45 2.308.765.596.344.969.928 1.067 1.56ZM9.869 6.439c-.36-.086-.706-.167-1.03-.243a2.19 2.19 0 0 1-.376-2.667 2.188 2.188 0 0 1 3.147-.7c.098.738.338 1.599.61 2.353a3.01 3.01 0 0 0-.449.774c-.628.113-1.305.278-1.902.483Zm10.124.075a3.43 3.43 0 0 1-.217.114c-.696-.295-1.587-.526-2.397-.672a3.01 3.01 0 0 0-.449-.774c.262-.727.494-1.553.599-2.273.095-.067.189-.128.278-.18a2.188 2.188 0 0 1 2.986.8 2.188 2.188 0 0 1-.8 2.985Z"/><defs><clipPath id="aba"><path transform="translate(0 3.064)" d="M0 0h20.936v20.936H0z"/></clipPath></defs></symbol><symbol viewBox="0 0 22 24" id="basket_copy" xmlns="http://www.w3.org/2000/svg"><g clip-path="url(#aaa)"><path d="M10.363 18.443a2.046 2.046 0 0 0-2.045 2.042 2.046 2.046 0 0 0 4.09 0 2.046 2.046 0 0 0-2.045-2.042Zm6.134 0a2.046 2.046 0 0 0-2.045 2.042 2.046 2.046 0 0 0 4.089 0 2.046 2.046 0 0 0-2.044-2.042Zm3.978-8.199L7.413 6.891a.614.614 0 0 0-.75.73L8.67 16.4h-.786L5.482 5.895a.613.613 0 0 0-.474-.464l-4.27-.882A.614.614 0 0 0 .489 5.75l3.885.802L6.797 17.15a.613.613 0 0 0 .598.477h12.07a.615.615 0 0 0 .607-.53l.858-6.175a.613.613 0 0 0-.455-.678Zm-8.14 3.91a.613.613 0 0 1-1.227 0v-2.696a.613.613 0 0 1 1.227 0v2.696Zm2.625 0a.613.613 0 0 1-1.227 0v-1.88a.613.613 0 0 1 1.227 0v1.88Zm2.625 0a.613.613 0 0 1-1.227 0v-1.226a.613.613 0 0 1 1.227 0v1.226Z"/></g><path fill-rule="evenodd" clip-rule="evenodd" d="M16.268 4.568a2.996 2.996 0 0 0-1.693-.523c-.627 0-1.21.193-1.693.523-.28-.843-.492-1.752-.492-2.383C12.39.98 13.37 0 14.575 0s2.185.98 2.185 2.185c0 .631-.212 1.54-.492 2.383Zm-4.722 2.274.024.006v-.011l-.024.005Zm4.972 1.217c-1.333-.33-2.766-.681-4.129-1.013a2.185 2.185 0 1 1 4.129 1.013Zm4.436 1.103c-.866-.217-2.155-.538-3.618-.9a2.995 2.995 0 0 0 .243-1.425c.87.18 1.762.45 2.308.765.596.344.969.928 1.067 1.56ZM9.869 6.439c-.36-.086-.706-.167-1.03-.243a2.19 2.19 0 0 1-.376-2.667 2.188 2.188 0 0 1 3.147-.7c.098.738.338 1.599.61 2.353a3.01 3.01 0 0 0-.449.774c-.628.113-1.305.278-1.902.483Zm10.124.075a3.43 3.43 0 0 1-.217.114c-.696-.295-1.587-.526-2.397-.672a3.01 3.01 0 0 0-.449-.774c.262-.727.494-1.553.599-2.273.095-.067.189-.128.278-.18a2.188 2.188 0 0 1 2.986.8 2.188 2.188 0 0 1-.8 2.985Z"/><defs><clipPath id="aaa"><path transform="translate(0 3.064)" d="M0 0h20.936v20.936H0z"/></clipPath></defs></symbol><symbol viewBox="0 0 32 33" id="btn-arrow" xmlns="http://www.w3.org/2000/svg"><path fill-rule="evenodd" clip-rule="evenodd" d="M16.71 2.097 31.113 16.5 16.71 30.903l-3.262-3.26 8.837-8.837H2.306v-4.612h19.979l-8.837-8.836 3.262-3.261Z"/></symbol><symbol viewBox="0 0 20 20" id="calendar" xmlns="http://www.w3.org/2000/svg"><path d="M13.333 1.667V5M6.667 1.667V5M2.5 8.334h15m-13.333-5h11.666c.92 0 1.667.746 1.667 1.666v11.667c0 .92-.746 1.667-1.667 1.667H4.167c-.92 0-1.667-.747-1.667-1.667V5c0-.92.746-1.666 1.667-1.666Z"/></symbol><symbol viewBox="0 0 48 48" id="capa" xmlns="http://www.w3.org/2000/svg"><path d="M39.53 43.765h-.706c-.78 0-1.412-.632-1.412-1.412V29.647c0-.78.632-1.412 1.412-1.412h.705v-3.53a1.412 1.412 0 0 1 2.824 0v3.53h.706c.78 0 1.412.632 1.412 1.412v12.706c0 .78-.633 1.412-1.412 1.412h-.706v2.823a1.412 1.412 0 0 1-2.824 0v-2.823Zm-11.295-4.236h-.706c-.78 0-1.412-.632-1.412-1.411V21.176c0-.78.633-1.411 1.412-1.411h.706v-7.06a1.412 1.412 0 0 1 2.824 0v7.06h.706c.78 0 1.411.632 1.411 1.411v16.942a1.41 1.41 0 0 1-1.412 1.411h-.705v2.118a1.412 1.412 0 1 1-2.824 0v-2.118Zm-11.294-8.47h-.706c-.78 0-1.412-.632-1.412-1.412v-12c0-.78.633-1.412 1.412-1.412h.706V12a1.412 1.412 0 1 1 2.824 0v4.235h.706c.78 0 1.411.632 1.411 1.412v12c0 .78-.632 1.412-1.412 1.412h-.705v2.117a1.412 1.412 0 1 1-2.824 0V31.06Zm-11.294-3.53H4.94c-.78 0-1.412-.632-1.412-1.411V9.176c0-.78.632-1.411 1.412-1.411h.706V1.412a1.412 1.412 0 1 1 2.823 0v6.353h.706c.78 0 1.412.632 1.412 1.412v16.94c0 .78-.632 1.412-1.412 1.412H8.47v6.354a1.412 1.412 0 1 1-2.823 0v-6.354Z"/></symbol><symbol viewBox="0 0 344.96 344.96" id="check" xmlns="http://www.w3.org/2000/svg"><g data-name="Слой 2"><path class="agcls-1" d="m321.85 86.24-40-23.11-23.1-40H212.5L172.48 0l-40 23.11H86.24l-23.11 40-40 23.1v46.21L0 172.48l23.11 40v46.21l40 23.11 23.11 40h46.21l40 23.1 40-23.11h46.21l23.11-40 40-23.11V212.5l23.11-40-23.11-40V86.24ZM156.91 243.07a16.79 16.79 0 0 1-23.34 0l-50.45-50.44a16.19 16.19 0 0 1 0-22.89l13.35-13.35a16.19 16.19 0 0 1 22.89 0l25.87 25.87 80.34-80.35a16.19 16.19 0 0 1 22.89 0l13.35 13.35a16.19 16.19 0 0 1 0 22.89Z" data-name="Capa 1"/></g></symbol><symbol viewBox="0 0 344.96 344.96" id="check_copy" xmlns="http://www.w3.org/2000/svg"><g data-name="Слой 2"><path class="afcls-1" d="m321.85 86.24-40-23.11-23.1-40H212.5L172.48 0l-40 23.11H86.24l-23.11 40-40 23.1v46.21L0 172.48l23.11 40v46.21l40 23.11 23.11 40h46.21l40 23.1 40-23.11h46.21l23.11-40 40-23.11V212.5l23.11-40-23.11-40V86.24ZM156.91 243.07a16.79 16.79 0 0 1-23.34 0l-50.45-50.44a16.19 16.19 0 0 1 0-22.89l13.35-13.35a16.19 16.19 0 0 1 22.89 0l25.87 25.87 80.34-80.35a16.19 16.19 0 0 1 22.89 0l13.35 13.35a16.19 16.19 0 0 1 0 22.89Z" data-name="Capa 1"/></g></symbol><symbol viewBox="0 0 22 23" id="chevron-left" xmlns="http://www.w3.org/2000/svg"><path d="m14.5 4.5-7 7 7 7"/></symbol><symbol viewBox="0 0 22 23" id="chevron-right" xmlns="http://www.w3.org/2000/svg"><path d="m7.5 4.5 7 7-7 7"/></symbol><symbol viewBox="0 0 24 24" id="fb" xmlns="http://www.w3.org/2000/svg"><path d="M13.397 20.997v-8.196h2.765l.411-3.209h-3.176V7.548c0-.926.258-1.56 1.587-1.56h1.684v-2.86A22.108 22.108 0 0 0 14.201 3c-2.444 0-4.122 1.492-4.122 4.231v2.355H7.332v3.21h2.753v8.201h3.312Z"/></symbol><symbol viewBox="0 0 24 24" id="fb_copy" xmlns="http://www.w3.org/2000/svg"><path d="M13.397 20.997v-8.196h2.765l.411-3.209h-3.176V7.548c0-.926.258-1.56 1.587-1.56h1.684v-2.86A22.108 22.108 0 0 0 14.201 3c-2.444 0-4.122 1.492-4.122 4.231v2.355H7.332v3.21h2.753v8.201h3.312Z"/></symbol><symbol viewBox="0 0 49 48" id="grow" xmlns="http://www.w3.org/2000/svg"><path fill-rule="evenodd" clip-rule="evenodd" d="M2.873 24.619h5.803a.94.94 0 0 1 .938.937v18.247a.94.94 0 0 1-.938.938H2.873a.94.94 0 0 1-.937-.938V25.556a.94.94 0 0 1 .937-.937Zm42.14-14.67v33.854a.94.94 0 0 1-.938.938h-5.802a.94.94 0 0 1-.938-.938V9.95H35.42a.46.46 0 0 1-.433-.29.46.46 0 0 1 .102-.51l5.755-5.755a.47.47 0 0 1 .663 0L47.26 9.15a.46.46 0 0 1 .101.51.46.46 0 0 1-.433.29h-1.916Zm-18.54 9.74h5.803a.94.94 0 0 1 .937.937v23.177a.94.94 0 0 1-.937.938h-5.803a.94.94 0 0 1-.938-.938V20.626a.94.94 0 0 1 .938-.937Zm-11.8-4.607h5.803a.94.94 0 0 1 .937.937v27.784a.94.94 0 0 1-.937.938h-5.803a.94.94 0 0 1-.938-.938V16.02a.94.94 0 0 1 .938-.937Z"/></symbol><symbol viewBox="0 0 49 48" id="info" xmlns="http://www.w3.org/2000/svg"><g clip-path="url(#ama)"><path d="M24.667 13.922c-5.566 0-10.078 4.512-10.078 10.078S19.1 34.078 24.667 34.078 34.745 29.566 34.745 24s-4.512-10.078-10.078-10.078Zm1.172 15.61a1.172 1.172 0 0 1-2.344 0v-8.438a1.172 1.172 0 0 1 2.344 0v8.437ZM24.667 18.75a1.172 1.172 0 1 1 0-2.344 1.172 1.172 0 0 1 0 2.344ZM10.68 14.228c.622 0 1.244-.137 1.817-.41l2.116 2.115c.588-.733 1.255-1.4 1.988-1.989l-2.115-2.115a4.225 4.225 0 0 0-.823-4.8 4.224 4.224 0 0 0-5.966 0 4.223 4.223 0 0 0 0 5.966 4.205 4.205 0 0 0 2.983 1.233Zm15.393 25.577v-2.99a13.034 13.034 0 0 1-2.812 0v2.99a4.225 4.225 0 0 0-2.813 3.977A4.224 4.224 0 0 0 24.667 48a4.223 4.223 0 0 0 4.219-4.22 4.225 4.225 0 0 0-2.813-3.976ZM23.26 8.196v2.99a13.01 13.01 0 0 1 2.813 0v-2.99a4.225 4.225 0 0 0 2.813-3.977A4.224 4.224 0 0 0 24.667 0a4.224 4.224 0 0 0-4.219 4.219 4.225 4.225 0 0 0 2.813 3.977Zm-8.647 23.87-2.116 2.115a4.225 4.225 0 0 0-4.8.824 4.223 4.223 0 0 0 0 5.966 4.206 4.206 0 0 0 2.983 1.234 4.21 4.21 0 0 0 2.983-1.234 4.225 4.225 0 0 0 .823-4.8l2.115-2.116a12.972 12.972 0 0 1-1.988-1.989Zm20.109-16.133 2.115-2.115a4.228 4.228 0 0 0 4.801-.823 4.223 4.223 0 0 0 0-5.966 4.224 4.224 0 0 0-5.966 0 4.225 4.225 0 0 0-.823 4.8l-2.116 2.115c.733.59 1.4 1.256 1.99 1.99ZM8.863 25.406h2.99a13.009 13.009 0 0 1 0-2.812h-2.99a4.225 4.225 0 0 0-3.977-2.813A4.224 4.224 0 0 0 .667 24a4.224 4.224 0 0 0 4.219 4.219 4.225 4.225 0 0 0 3.977-2.813Zm35.586-5.625a4.225 4.225 0 0 0-3.977 2.813h-2.99a13.009 13.009 0 0 1 0 2.812h2.99a4.225 4.225 0 0 0 3.977 2.813A4.224 4.224 0 0 0 48.667 24a4.224 4.224 0 0 0-4.218-4.219Zm-7.612 14.4-2.115-2.115a13.04 13.04 0 0 1-1.989 1.99l2.116 2.114a4.225 4.225 0 0 0 .823 4.801 4.206 4.206 0 0 0 2.983 1.234 4.21 4.21 0 0 0 2.983-1.234 4.223 4.223 0 0 0 0-5.966 4.225 4.225 0 0 0-4.8-.824Z"/></g><defs><clipPath id="ama"><path transform="translate(.667)" d="M0 0h48v48H0z"/></clipPath></defs></symbol><symbol viewBox="0 0 24 24" id="instagram" xmlns="http://www.w3.org/2000/svg"><path d="M11.999 7.377a4.624 4.624 0 1 0 0 9.248 4.624 4.624 0 0 0 0-9.248Zm0 7.627a3.004 3.004 0 1 1 0-6.008 3.004 3.004 0 0 1 0 6.008Zm4.807-6.719a1.078 1.078 0 1 0 0-2.156 1.078 1.078 0 0 0 0 2.156Z"/><path d="M20.533 6.11A4.605 4.605 0 0 0 17.9 3.48a6.607 6.607 0 0 0-2.186-.42c-.963-.042-1.268-.054-3.71-.054s-2.755 0-3.71.054a6.554 6.554 0 0 0-2.184.42 4.6 4.6 0 0 0-2.633 2.63 6.585 6.585 0 0 0-.419 2.186c-.043.962-.056 1.267-.056 3.71 0 2.442 0 2.753.056 3.71.015.748.156 1.486.419 2.187a4.61 4.61 0 0 0 2.634 2.632 6.583 6.583 0 0 0 2.185.45c.963.042 1.268.055 3.71.055s2.755 0 3.71-.055a6.616 6.616 0 0 0 2.186-.42 4.613 4.613 0 0 0 2.633-2.632c.263-.7.404-1.438.419-2.186.043-.962.056-1.267.056-3.71s0-2.753-.056-3.71a6.583 6.583 0 0 0-.421-2.217Zm-1.218 9.533a5.046 5.046 0 0 1-.311 1.688 2.987 2.987 0 0 1-1.712 1.71c-.535.2-1.1.305-1.67.312-.95.044-1.218.055-3.654.055-2.438 0-2.687 0-3.655-.055a4.961 4.961 0 0 1-1.67-.311 2.984 2.984 0 0 1-1.718-1.711 5.08 5.08 0 0 1-.311-1.67c-.043-.95-.053-1.217-.053-3.653 0-2.437 0-2.686.053-3.655a5.038 5.038 0 0 1 .311-1.687c.305-.79.93-1.41 1.719-1.712a5.01 5.01 0 0 1 1.669-.311c.95-.043 1.218-.055 3.655-.055s2.687 0 3.654.055a4.96 4.96 0 0 1 1.67.31 2.99 2.99 0 0 1 1.712 1.713 5.06 5.06 0 0 1 .311 1.669c.043.95.054 1.218.054 3.655 0 2.436 0 2.698-.043 3.654h-.011v-.001Z"/></symbol><symbol viewBox="0 0 49 48" id="market" xmlns="http://www.w3.org/2000/svg"><path d="M18.457 14.604h11.751v4.429H18.457v-4.43Zm0 21.726h11.751v4.43H18.457v-4.43Zm0-14.484h11.751v4.429H18.457v-4.43Zm0 21.724h11.751V48H18.457v-4.43Zm0-14.482h11.751v4.43H18.457v-4.43Zm5.876-17.296c3.245 0 5.875-2.64 5.875-5.896S27.578 0 24.333 0s-5.876 2.64-5.876 5.896 2.63 5.896 5.876 5.896ZM2.487 43.57H14.24V48H2.487v-4.43Zm0-21.724H14.24v4.429H2.487v-4.43Zm0 14.484H14.24v4.43H2.487v-4.43Zm0-7.242H14.24v4.43H2.487v-4.43Zm5.876-10.054c3.245 0 5.876-2.64 5.876-5.896s-2.631-5.896-5.876-5.896c-3.245 0-5.876 2.64-5.876 5.896s2.63 5.896 5.876 5.896Zm26.065 14.483h11.751v-4.43H34.428v4.43Zm0 10.053h11.751V48H34.428v-4.43Zm0-7.24h11.751v4.43H34.428v-4.43Zm0-15.95c0 3.25 2.635 5.895 5.874 5.896h.003c3.24-.001 5.874-2.646 5.874-5.896s-2.636-5.896-5.876-5.896-5.875 2.645-5.875 5.896Z"/></symbol><symbol viewBox="0 0 38 38" id="money" xmlns="http://www.w3.org/2000/svg"><path fill-rule="evenodd" clip-rule="evenodd" d="M28.558 4.156H9.442l-7.958 9.01c-.088.099-.188.18-.296.242v4.059c.108.062.208.143.296.242l7.958 9.01h19.116l7.958-9.01c.088-.099.188-.18.297-.242v-4.059a1.184 1.184 0 0 1-.297-.242l-7.958-9.01Zm-16.09 11.282a6.531 6.531 0 1 1 13.063 0 6.531 6.531 0 0 1-13.062 0Z"/><path d="M36.813 9.913V7.72a3.562 3.562 0 0 0-3.563-3.563h-1.523l5.086 5.757Zm-5.086 16.806 5.086-5.758v2.195a3.562 3.562 0 0 1-3.563 3.563h-1.523ZM4.75 4.156h1.523L1.188 9.913V7.72A3.562 3.562 0 0 1 4.75 4.156Zm1.523 22.563L1.188 20.96v2.195A3.563 3.563 0 0 0 4.75 26.72h1.523ZM4.75 29.094c0-.656.532-1.188 1.188-1.188h26.125a1.188 1.188 0 0 1 0 2.375H5.936a1.187 1.187 0 0 1-1.187-1.187Zm4.156 3.562c0-.656.532-1.187 1.188-1.187h17.812a1.187 1.187 0 1 1 0 2.375H10.094a1.188 1.188 0 0 1-1.188-1.188Z"/></symbol><symbol viewBox="0 0 49 48" id="ok" xmlns="http://www.w3.org/2000/svg"><g clip-path="url(#aqa)"><path d="M38.83 24.1c.532-.849.584-1.9.14-2.81-2.032-4.185-5.984-7.134-12.233-7.134-7.668 0-14.04 6.177-14.04 14.063l-.005 1.324c-.02 4.085-.05 9.774 1.413 17.314A1.406 1.406 0 0 0 15.486 48h15.469c.778 0 1.406-.63 1.406-1.406v-1.517c.001-1.583.596-3.12 1.65-4.418 3.46-1.926 5.893-5.387 6.408-9.423.205-1.614-1.169-3.017-2.816-3.017-1.41 0-2.598.99-2.763 2.298l-.007-.053c-.988 3.563-4.22 6.192-8.096 6.192a8.437 8.437 0 1 1 0-16.875c3.042 0 5.685 1.626 7.17 4.04l-.016-.115c1.074 2.184 3.805 2.204 4.939.394ZM8.264 2.737l-.037 1.151c-.163 5.963.706 13.184 2.428 19.28.23-.736.526-1.441.851-2.13.375-4.34 1.2-8.457 2.5-12.401a39.44 39.44 0 0 1-.155-4.597l.036-1.15C13.93 1.41 12.802.045 11.073 0a2.794 2.794 0 0 0-2.809 2.737ZM23.777.298C22.422-.39 20.679.2 20.002 1.555l-.594 1.187c-2.155 4.316-3.578 8.834-4.417 13.397a16.95 16.95 0 0 1 4.318-3.028 66.58 66.58 0 0 1 2.566-3.096c.34-.383.696-.713 1.041-1.083.449-1.216.942-2.51 1.524-3.676l.593-1.188a2.81 2.81 0 0 0-1.256-3.77Zm8.052 11.717c.598-.53 1.161-1.099 1.786-1.595l1.04-.826a2.814 2.814 0 0 0 .453-3.952c-.936-1.177-2.778-1.39-3.952-.453l-1.04.825c-1.975 1.57-3.924 3.44-5.807 5.526a16.806 16.806 0 0 1 2.428-.196c1.818 0 3.514.239 5.092.671Z"/></g><defs><clipPath id="aqa"><path transform="translate(.333)" d="M0 0h48v48H0z"/></clipPath></defs></symbol><symbol viewBox="0 0 16 16" id="point" xmlns="http://www.w3.org/2000/svg"><path d="M8.828 16c1.902 0 3.726-.843 5.071-2.343C15.244 12.157 16 10.122 16 8s-.756-4.157-2.1-5.657C12.553.843 10.73 0 8.827 0v2.576c1.29 0 2.526.572 3.438 1.589C13.178 5.182 13.69 6.562 13.69 8c0 1.438-.512 2.818-1.424 3.835-.912 1.017-2.149 1.589-3.438 1.589V16Z"/><ellipse cx="7.724" cy="8" rx="2.759" ry="3.077"/><path d="M0 7.385h6.069v1.231H0z"/></symbol><symbol viewBox="0 0 48 48" id="rapid" xmlns="http://www.w3.org/2000/svg"><g clip-path="url(#asa)"><path d="M46.4 6.258v.002l.788.14-.788-.142ZM32.279 32a1.176 1.176 0 0 0-1.066.938.599.599 0 0 0 .103.496.51.51 0 0 0 .406.167 1.176 1.176 0 0 0 1.066-.938.599.599 0 0 0-.104-.496.51.51 0 0 0-.405-.166Z"/><path d="M40.304 11.594A3.393 3.393 0 0 1 39.52 9.6h-6.706a4.818 4.818 0 0 1-3.7 3.144l-3.98 22.568c.688.168 1.305.55 1.76 1.093.47.563.747 1.262.786 1.995h6.707a4.817 4.817 0 0 1 3.7-3.145l3.98-22.567a3.327 3.327 0 0 1-1.763-1.094Zm-5.94 21.342a2.766 2.766 0 0 1-2.642 2.264 2.092 2.092 0 0 1-1.63-.736 2.2 2.2 0 0 1-.456-1.801A2.766 2.766 0 0 1 32.28 30.4a2.092 2.092 0 0 1 1.63.736 2.2 2.2 0 0 1 .455 1.8Zm3.175-8.8A4.713 4.713 0 0 1 33.045 28a3.39 3.39 0 0 1-2.65-1.188 3.6 3.6 0 0 1-.734-2.95A4.714 4.714 0 0 1 34.155 20a3.39 3.39 0 0 1 2.65 1.188 3.6 3.6 0 0 1 .734 2.948Zm.025-8.8a2.766 2.766 0 0 1-2.642 2.264 2.09 2.09 0 0 1-1.63-.736 2.2 2.2 0 0 1-.456-1.801A2.766 2.766 0 0 1 35.48 12.8a2.092 2.092 0 0 1 1.63.736 2.2 2.2 0 0 1 .455 1.8Z"/><path d="M35.479 14.4a1.175 1.175 0 0 0-1.066.936.602.602 0 0 0 .103.497.51.51 0 0 0 .406.166 1.175 1.175 0 0 0 1.066-.937.602.602 0 0 0-.104-.496.509.509 0 0 0-.405-.167Zm-1.324 7.2a3.159 3.159 0 0 0-2.918 2.537 1.98 1.98 0 0 0 .382 1.646 1.818 1.818 0 0 0 1.425.618 3.158 3.158 0 0 0 2.918-2.537 1.978 1.978 0 0 0-.382-1.646 1.818 1.818 0 0 0-1.425-.617ZM2.4 17.6H16a2.4 2.4 0 0 1 0 4.8H4.8a.8.8 0 0 0-.742 1.1c.04.096.098.182.171.255A.782.782 0 0 0 4.8 24h5.993a2.801 2.801 0 0 1 2.8 2.813 2.819 2.819 0 0 1-1.732 2.575c-.339.14-.702.212-1.068.212H4.888a.864.864 0 0 0-.88.724.76.76 0 0 0 .225.63.78.78 0 0 0 .567.246h9.6a2.4 2.4 0 0 1 0 4.8H8a.8.8 0 0 0-.742 1.1c.04.095.098.182.171.254A.78.78 0 0 0 8 37.6h11.906l4.938-28H8.8a.8.8 0 0 0-.742 1.1c.04.096.098.182.171.255a.782.782 0 0 0 .57.245H16a2.4 2.4 0 0 1 0 4.8H2.4a.8.8 0 0 0-.74 1.1.77.77 0 0 0 .17.255.782.782 0 0 0 .57.245Z"/><path d="M47.2 41.6h-7.16a.208.208 0 0 0 .152-.137L46.375 6.4H27.16a.208.208 0 0 0-.152.138L20.825 41.6H.8a.8.8 0 0 0 0 1.6h46.4a.8.8 0 1 0 0-1.6Zm-8.432-4.8a3.2 3.2 0 0 0-2.977 2.54.8.8 0 0 1-.787.66h-8.168a.8.8 0 0 1-.787-.939 1.958 1.958 0 0 0-.379-1.627 1.87 1.87 0 0 0-1.47-.634.8.8 0 0 1-.787-.939l4.232-24a.8.8 0 0 1 .787-.66 3.2 3.2 0 0 0 2.977-2.54.8.8 0 0 1 .787-.66h8.168a.8.8 0 0 1 .787.939 1.958 1.958 0 0 0 .379 1.627A1.87 1.87 0 0 0 43 11.2a.8.8 0 0 1 .787.94l-4.232 24a.8.8 0 0 1-.787.66Z"/></g><defs><clipPath id="asa"><path d="M0 0h48v48H0z"/></clipPath></defs></symbol><symbol viewBox="0 0 38 38" id="rocket" xmlns="http://www.w3.org/2000/svg"><g clip-path="url(#ata)"><path d="M8.566 36.06a4.629 4.629 0 1 0-6.546-6.546C.732 30.8.223 32.797.063 34.604a16.204 16.204 0 0 0 .018 3.072c.028.256.274.314.316.322H.41c.103 0 1.582.033 2.038-1.41.082-.27.202-.526.357-.76a.5.5 0 0 1 .906.356 2.45 2.45 0 0 0 .323 1.58.307.307 0 0 0 .31.15c1.55-.238 3.137-.768 4.222-1.853ZM37.964 3.472C37.852 1.536 36.465.148 34.53.036 27.95-.356 20.62 2.434 14.905 8.15l-1.524 1.524c-.55.55-1.072 1.113-1.566 1.691H7.008c-1.02.04-1.923.628-2.433 1.492l-2.826 5.652a2.934 2.934 0 0 0-.157.628 1.39 1.39 0 0 0 1.377 1.373h3.569c-.463 1.559-.155 3.093.836 4.082l6.033 6.034c.99.99 2.524 1.3 4.082.836v3.572a1.39 1.39 0 0 0 1.374 1.374c.215-.03.425-.082.628-.157l5.652-2.826c.864-.51 1.452-1.41 1.492-2.433v-4.806a30.865 30.865 0 0 0 1.69-1.566l1.525-1.525c5.717-5.716 8.506-13.046 8.114-19.623Zm-8.008 11.453a4.865 4.865 0 1 1-6.88-6.88 4.865 4.865 0 0 1 6.88 6.88ZM5.872 7.587a1.415 1.415 0 0 1 0-2l3.664-3.664a1.417 1.417 0 1 1 2.004 2.004L7.876 7.59a1.415 1.415 0 0 1-2.004-.003Zm-5.31-.84a1.415 1.415 0 0 1 0-1.997l1.879-1.881a1.415 1.415 0 0 1 2 2L2.562 6.747a1.41 1.41 0 0 1-2 0Zm29.732 25.261a1.41 1.41 0 0 1 0-2l3.663-3.66a1.416 1.416 0 0 1 2.004 2l-3.663 3.663a1.415 1.415 0 0 1-2.004-.003Zm.839 5.31a1.415 1.415 0 0 1 0-2l1.878-1.879a1.416 1.416 0 0 1 2.004 2l-1.878 1.879a1.412 1.412 0 0 1-2.004 0Z"/></g><defs><clipPath id="ata"><path d="M0 0h38v38H0z"/></clipPath></defs></symbol><symbol viewBox="0 0 48 48" id="star" xmlns="http://www.w3.org/2000/svg"><g clip-path="url(#aua)"><path d="M21.188 37.659c0-3.514 1.368-6.816 3.852-9.3a13.067 13.067 0 0 1 9.3-3.853c1.845 0 3.631.377 5.272 1.095l8.38-8.17-16.578-2.408L24 0l-7.415 15.023L.007 17.432l11.996 11.694-2.832 16.511 12.114-6.368a13.367 13.367 0 0 1-.098-1.61Z"/><path d="M34.341 27.318C28.63 27.318 24 31.948 24 37.66c0 5.712 4.63 10.342 10.341 10.342 5.712 0 10.341-4.63 10.341-10.341 0-5.712-4.63-10.342-10.34-10.342Zm-.994 15.064-4.474-4.474 1.988-1.988 2.486 2.485 4.474-4.474 1.989 1.989-6.463 6.462Z"/></g><defs><clipPath id="aua"><path d="M0 0h48v48H0z"/></clipPath></defs></symbol><symbol viewBox="0 0 38 38" id="target" xmlns="http://www.w3.org/2000/svg"><g clip-path="url(#ava)"><path d="M19.802 18.234c-.007-.006-.008-.015-.015-.021l-6.353-6.354V7.867c0-.296-.118-.578-.326-.787L6.428.326a1.114 1.114 0 0 0-1.9.787v3.34H1.112a1.112 1.112 0 0 0-.787 1.9l6.754 6.754c.21.21.492.327.787.327h3.993l6.353 6.353c.006.006.015.008.022.014.433.414 1.091.42 1.53 0 .463-.441.453-1.13.037-1.567Z"/><path d="M19 0c-2.849 0-5.542.725-7.967 1.857l3.415 3.415A14.393 14.393 0 0 1 19 4.527c7.98 0 14.472 6.493 14.472 14.473S26.98 33.473 19 33.473C11.02 33.473 4.527 26.98 4.527 19c0-1.591.268-3.119.745-4.552l-3.415-3.415C.725 13.458 0 16.15 0 19c0 10.436 8.564 19 19 19s19-8.564 19-19S29.436 0 19 0Z"/><path d="M19 8.98c-1.177 0-2.29.242-3.34.616v1.341l2.574 2.574c.253-.035.504-.077.766-.077A5.573 5.573 0 0 1 24.566 19 5.573 5.573 0 0 1 19 24.567 5.573 5.573 0 0 1 13.434 19c0-.262.042-.513.077-.766l-2.574-2.574H9.596c-.374 1.05-.616 2.163-.616 3.34 0 5.525 4.495 10.02 10.02 10.02 5.525 0 10.02-4.495 10.02-10.02 0-5.525-4.495-10.02-10.02-10.02Z"/></g><defs><clipPath id="ava"><path d="M0 0h38v38H0z"/></clipPath></defs></symbol><symbol viewBox="0 0 16 16" id="telegram" xmlns="http://www.w3.org/2000/svg"><path d="m14.629 3.698-2.012 9.618c-.152.679-.548.848-1.11.528l-3.066-2.29-1.48 1.442c-.163.166-.3.305-.616.305l.22-3.165 5.683-5.204c.247-.223-.054-.347-.384-.123L4.839 9.29l-3.024-.959c-.658-.208-.67-.667.137-.986L13.78 2.727c.548-.208 1.027.124.849.971Z"/></symbol><symbol viewBox="0 0 14 13" id="track" xmlns="http://www.w3.org/2000/svg"><path fill-rule="evenodd" clip-rule="evenodd" d="m13.733 6.197-1.357-2.198a1.927 1.927 0 0 0-1.636-.904H9.55V1.857C9.55.83 8.697 0 7.64 0H.637A.63.63 0 0 0 0 .619c0 .34.286.62.637.62H3.82a.63.63 0 0 1 .637.618.63.63 0 0 1-.637.62H.637A.63.63 0 0 0 0 3.094c0 .34.286.62.637.62h3.82a.63.63 0 0 1 .636.618.63.63 0 0 1-.636.62H1.273a.63.63 0 0 0-.636.618c0 .34.286.62.636.62H7.64a.63.63 0 0 1 .636.619v2.476a.63.63 0 0 1-.636.619H5.513a2.237 2.237 0 0 0-2.011-1.238c-.885 0-1.656.507-2.012 1.238H.637a.63.63 0 0 0-.637.619c0 .34.286.619.637.619h.662C1.452 12.195 2.38 13 3.502 13c1.12 0 2.05-.805 2.202-1.857h2.592C8.448 12.195 9.378 13 10.498 13c1.12 0 2.114-.86 2.216-1.962.745-.254 1.286-.941 1.286-1.752V7.15c0-.334-.095-.669-.274-.953h.007ZM3.502 11.762a.94.94 0 0 1-.955-.929.94.94 0 0 1 .955-.928.94.94 0 0 1 .955.928.94.94 0 0 1-.955.929Zm7.003 0a.94.94 0 0 1-.955-.929.94.94 0 0 1 .955-.928.94.94 0 0 1 .955.928.94.94 0 0 1-.955.929Zm2.228-2.476a.61.61 0 0 1-.274.507 2.23 2.23 0 0 0-1.636-1.108 2.22 2.22 0 0 0-1.273.186v-.83a.63.63 0 0 1 .636-.619h1.91a.63.63 0 0 1 .637.62v1.244Z"/></symbol><symbol viewBox="0 0 16 16" id="viber" xmlns="http://www.w3.org/2000/svg"><path d="M8 1.335c-1.071.013-3.374.19-4.662 1.37-.958.948-1.292 2.35-1.331 4.084-.033 1.728-.072 4.973 3.058 5.856v1.346s-.02.538.337.648c.438.14.688-.275 1.105-.72l.778-.879c2.142.178 3.782-.232 3.97-.293.435-.139 2.883-.451 3.283-3.696.41-3.351-.2-5.463-1.301-6.418h-.007c-.332-.306-1.668-1.279-4.652-1.29 0 0-.222-.014-.578-.008Zm.037.942a7.02 7.02 0 0 1 .488.011c2.527.007 3.732.767 4.017 1.023.927.794 1.405 2.697 1.055 5.495-.332 2.713-2.317 2.885-2.685 3.002-.156.05-1.6.406-3.42.289 0 0-1.356 1.634-1.78 2.055-.067.074-.146.095-.196.085-.071-.018-.093-.107-.089-.229l.013-2.233c-2.655-.733-2.498-3.5-2.47-4.946.033-1.446.304-2.628 1.113-3.43 1.088-.982 3.043-1.115 3.953-1.122Zm.2 1.446a.166.166 0 1 0 0 .332 3.136 3.136 0 0 1 2.242.883c.606.588.9 1.378.912 2.411 0 .092.074.167.167.167V7.51a.167.167 0 0 0 .168-.165 3.588 3.588 0 0 0-1.009-2.646c-.66-.645-1.496-.977-2.48-.977Zm-2.198.382a.523.523 0 0 0-.342.067H5.69a2.61 2.61 0 0 0-.637.523 1.003 1.003 0 0 0-.256.525.71.71 0 0 0 .026.302l.01.006c.172.504.396.988.67 1.444a8.48 8.48 0 0 0 1.29 1.762l.015.022.024.017.015.018.017.015c.532.505 1.127.94 1.769 1.295.734.4 1.18.588 1.447.667v.004c.078.024.15.034.221.034.228-.016.444-.109.613-.262a2.53 2.53 0 0 0 .517-.638v-.004c.128-.241.085-.469-.1-.623-.37-.323-.77-.61-1.195-.857-.285-.155-.574-.061-.69.095l-.25.315c-.129.156-.361.134-.361.134l-.007.004C7.093 8.527 6.63 6.772 6.63 6.772s-.022-.239.139-.36l.312-.252c.15-.122.254-.41.094-.695a7.498 7.498 0 0 0-.856-1.194.475.475 0 0 0-.28-.167Zm2.486.495c-.221 0-.221.334.003.334A2.098 2.098 0 0 1 10 5.572 1.94 1.94 0 0 1 10.5 7a.168.168 0 0 0 .167.165l.007.009a.169.169 0 0 0 .167-.167c.015-.662-.191-1.218-.595-1.663C9.84 4.9 9.273 4.65 8.549 4.6h-.024Zm.274.898c-.228-.006-.236.335-.01.341.55.029.816.306.851.877a.166.166 0 0 0 .165.163h.007a.168.168 0 0 0 .16-.178c-.039-.744-.445-1.164-1.166-1.202H8.8Z"/></symbol><symbol viewBox="0 0 24 24" id="vk" xmlns="http://www.w3.org/2000/svg"><path d="M21.579 6.855c.14-.465 0-.806-.662-.806h-2.193c-.558 0-.813.295-.953.619 0 0-1.115 2.719-2.695 4.482-.51.513-.743.675-1.021.675-.139 0-.341-.162-.341-.627V6.855c0-.558-.161-.806-.626-.806H9.642c-.348 0-.558.258-.558.504 0 .528.79.65.871 2.138v3.228c0 .707-.127.836-.407.836-.743 0-2.551-2.73-3.624-5.853-.209-.607-.42-.852-.98-.852H2.752c-.627 0-.752.295-.752.619 0 .582.743 3.462 3.461 7.27 1.812 2.602 4.363 4.012 6.687 4.012 1.393 0 1.565-.313 1.565-.853v-1.966c0-.626.133-.752.574-.752.324 0 .882.164 2.183 1.417 1.486 1.486 1.732 2.153 2.567 2.153h2.192c.626 0 .939-.313.759-.931-.197-.615-.907-1.51-1.849-2.57-.512-.603-1.277-1.253-1.51-1.578-.325-.42-.231-.604 0-.976.001 0 2.672-3.761 2.95-5.04Z"/></symbol><symbol viewBox="0 0 16 16" id="whatsapp" xmlns="http://www.w3.org/2000/svg"><path fill-rule="evenodd" clip-rule="evenodd" d="M12.269 3.755A5.947 5.947 0 0 0 8.035 2 5.994 5.994 0 0 0 2.05 7.985a5.98 5.98 0 0 0 .799 2.992L2 14.077l3.173-.832c.877.477 1.86.728 2.86.728h.002a5.993 5.993 0 0 0 5.533-8.276 5.953 5.953 0 0 0-1.3-1.942Zm-4.234 9.208h-.002c-.89 0-1.765-.24-2.532-.694l-.181-.108-1.883.494.502-1.835-.118-.188a4.965 4.965 0 0 1-.76-2.647 4.982 4.982 0 0 1 6.88-4.597c.604.25 1.152.618 1.613 1.081a4.946 4.946 0 0 1 1.455 3.52 4.982 4.982 0 0 1-4.974 4.974Zm2.729-3.726c-.15-.075-.885-.436-1.022-.486-.137-.05-.236-.075-.336.074-.1.15-.387.486-.474.586-.087.1-.175.112-.324.038-.15-.075-.631-.233-1.203-.742a4.505 4.505 0 0 1-.832-1.036c-.087-.15-.009-.231.066-.306.068-.066.15-.174.224-.262.075-.087.1-.149.15-.249.05-.1.025-.187-.013-.262-.037-.075-.337-.811-.461-1.11-.121-.29-.244-.252-.336-.256a6.418 6.418 0 0 0-.286-.005.55.55 0 0 0-.4.186c-.137.15-.523.512-.523 1.248s.536 1.447.61 1.547c.075.1 1.055 1.61 2.555 2.258.358.154.636.246.853.315.358.114.684.098.942.06.287-.043.885-.362 1.01-.711.124-.35.124-.649.087-.711-.038-.063-.138-.101-.287-.176Z"/></symbol></svg>