<svg width="48" height="48" viewBox="0 0 48 48" fill="none" xmlns="http://www.w3.org/2000/svg">
<path d="M39.5293 43.7648H38.8235C38.0437 43.7648 37.4117 43.1327 37.4117 42.353V29.647C37.4117 28.8673 38.0437 28.2352 38.8235 28.2352H39.5293V24.7058C39.5293 23.9261 40.1614 23.2941 40.9411 23.2941C41.7208 23.2941 42.3529 23.9261 42.3529 24.7058V28.2352H43.0587C43.8384 28.2352 44.4705 28.8673 44.4705 29.647V42.3529C44.4705 43.1326 43.8384 43.7647 43.0587 43.7647H42.3529V46.5882C42.3529 47.3679 41.7208 48 40.9411 48C40.1614 48 39.5293 47.3679 39.5293 46.5882V43.7648ZM28.2351 39.5294H27.5293C26.7496 39.5294 26.1175 38.8973 26.1175 38.1176V21.1764C26.1175 20.3967 26.7496 19.7647 27.5293 19.7647H28.2351V12.7058C28.2351 11.9261 28.8672 11.2941 29.6469 11.2941C30.4266 11.2941 31.0587 11.9261 31.0587 12.7058V19.7647H31.7645C32.5443 19.7647 33.1763 20.3967 33.1763 21.1764V38.1176C33.1763 38.8973 32.5443 39.5294 31.7645 39.5294H31.0587V41.647C31.0587 42.4268 30.4266 43.0588 29.6469 43.0588C28.8672 43.0588 28.2351 42.4268 28.2351 41.647V39.5294ZM16.9411 31.0588H16.2352C15.4555 31.0588 14.8235 30.4267 14.8235 29.647V17.647C14.8235 16.8673 15.4555 16.2352 16.2352 16.2352H16.9411V12C16.9411 11.2203 17.5731 10.5882 18.3529 10.5882C19.1326 10.5882 19.7646 11.2203 19.7646 12V16.2352H20.4705C21.2502 16.2352 21.8823 16.8673 21.8823 17.647V29.647C21.8823 30.4267 21.2502 31.0588 20.4705 31.0588H19.7646V33.1764C19.7646 33.9562 19.1326 34.5882 18.3529 34.5882C17.5731 34.5882 16.9411 33.9562 16.9411 33.1764V31.0588ZM5.64692 27.5294H4.94108C4.16136 27.5294 3.5293 26.8973 3.5293 26.1176V9.17644C3.5293 8.39672 4.16136 7.76466 4.94108 7.76466H5.64692V1.41178C5.64692 0.632062 6.27898 0 7.0587 0C7.83842 0 8.47048 0.632062 8.47048 1.41178V7.76475H9.17633C9.95605 7.76475 10.5881 8.39681 10.5881 9.17653V26.1177C10.5881 26.8974 9.95605 27.5295 9.17633 27.5295H8.47048V33.8825C8.47048 34.6622 7.83842 35.2943 7.0587 35.2943C6.27898 35.2943 5.64692 34.6622 5.64692 33.8825V27.5294Z" fill="#E44646"/>
</svg>
