<svg width="49" height="48" viewBox="0 0 49 48" fill="none" xmlns="http://www.w3.org/2000/svg">
<path fill-rule="evenodd" clip-rule="evenodd" d="M2.87305 24.6188H8.67608C9.19245 24.6188 9.61358 25.0399 9.61358 25.5563V43.8033C9.61358 44.3197 9.19245 44.7408 8.67608 44.7408H2.87305C2.35667 44.7408 1.93555 44.3197 1.93555 43.8033V25.5563C1.93555 25.0399 2.35667 24.6188 2.87305 24.6188ZM45.013 9.9498V43.8033C45.013 44.3197 44.5919 44.7408 44.0755 44.7408H38.2726C37.7562 44.7408 37.3351 44.3197 37.3351 43.8033V9.9498H35.4191C35.2255 9.9498 35.0601 9.83937 34.9861 9.66049C34.9119 9.48162 34.9507 9.28662 35.0877 9.14965L40.8426 3.39471C41.0252 3.21218 41.323 3.21218 41.5056 3.39471L47.2605 9.14965C47.3974 9.28652 47.4362 9.48162 47.3621 9.66049C47.288 9.83937 47.1227 9.9498 46.9291 9.9498H45.013ZM26.4727 19.6887H32.2757C32.792 19.6887 33.2132 20.1099 33.2132 20.6262V43.8033C33.2132 44.3197 32.792 44.7408 32.2757 44.7408H26.4727C25.9564 44.7408 25.5352 44.3197 25.5352 43.8033V20.6261C25.5352 20.1099 25.9564 19.6887 26.4727 19.6887ZM14.6729 15.0819H20.4758C20.9922 15.0819 21.4133 15.503 21.4133 16.0194V43.8033C21.4133 44.3197 20.9922 44.7408 20.4758 44.7408H14.6729C14.1565 44.7408 13.7354 44.3197 13.7354 43.8033V16.0194C13.7354 15.503 14.1565 15.0819 14.6729 15.0819Z" fill="#E44646"/>
</svg>
