<svg width="49" height="48" viewBox="0 0 49 48" fill="none" xmlns="http://www.w3.org/2000/svg">
<g clip-path="url(#clip0_4012_11901)">
<path d="M24.667 13.9219C19.101 13.9219 14.5889 18.434 14.5889 24C14.5889 29.566 19.101 34.0781 24.667 34.0781C30.233 34.0781 34.7451 29.566 34.7451 24C34.7451 18.434 30.233 13.9219 24.667 13.9219ZM25.8389 29.5312C25.8389 30.1784 25.3141 30.7031 24.667 30.7031C24.0198 30.7031 23.4951 30.1784 23.4951 29.5312V21.0938C23.4951 20.4466 24.0198 19.9219 24.667 19.9219C25.3141 19.9219 25.8389 20.4466 25.8389 21.0938V29.5312ZM24.667 18.75C24.0197 18.75 23.4951 18.2254 23.4951 17.5781C23.4951 16.9309 24.0197 16.4062 24.667 16.4062C25.3142 16.4062 25.8389 16.9309 25.8389 17.5781C25.8389 18.2254 25.3142 18.75 24.667 18.75Z" fill="#E44646"/>
<path d="M10.6797 14.2284C11.3021 14.2284 11.9243 14.0911 12.4974 13.8181L14.6125 15.9332C15.2013 15.2002 15.8683 14.5332 16.6013 13.9444L14.4862 11.8293C15.2331 10.2615 14.9591 8.32487 13.6628 7.02859C12.0179 5.38365 9.34134 5.38375 7.69659 7.02859C6.05166 8.67343 6.05166 11.3499 7.69659 12.9947C8.51897 13.8172 9.59925 14.2284 10.6797 14.2284Z" fill="#E44646"/>
<path d="M26.0732 39.8049V36.8145C25.6113 36.8646 25.1423 36.8911 24.667 36.8911C24.1917 36.8911 23.7226 36.8646 23.2607 36.8145V39.8049C21.624 40.3854 20.4482 41.9485 20.4482 43.7818C20.4482 46.108 22.3408 48.0005 24.667 48.0005C26.9932 48.0005 28.8857 46.108 28.8857 43.7818C28.8857 41.9485 27.71 40.3854 26.0732 39.8049Z" fill="#E44646"/>
<path d="M23.2607 8.19563V11.1861C23.7226 11.1359 24.1917 11.1094 24.667 11.1094C25.1423 11.1094 25.6113 11.1359 26.0732 11.1861V8.19563C27.71 7.61512 28.8857 6.05203 28.8857 4.21875C28.8857 1.89253 26.9932 0 24.667 0C22.3408 0 20.4482 1.89253 20.4482 4.21875C20.4482 6.05203 21.624 7.61512 23.2607 8.19563Z" fill="#E44646"/>
<path d="M14.6125 32.0664L12.4974 34.1815C10.9296 33.4346 8.99278 33.7085 7.69659 35.0048C6.05166 36.6497 6.05166 39.3261 7.69659 40.971C8.51897 41.7934 9.59934 42.2046 10.6797 42.2046C11.76 42.2046 12.8404 41.7934 13.6628 40.971C14.9591 39.6747 15.233 37.738 14.4861 36.1702L16.6012 34.0551C15.8683 33.4664 15.2013 32.7993 14.6125 32.0664Z" fill="#E44646"/>
<path d="M34.7221 15.9332L36.8372 13.8181C37.4103 14.0911 38.0324 14.2284 38.6549 14.2284C39.7353 14.2284 40.8157 13.8172 41.6381 12.9948C43.283 11.3499 43.283 8.67347 41.6381 7.02862C39.9933 5.38378 37.3167 5.38359 35.6718 7.02862C34.3754 8.32491 34.1016 10.2616 34.8485 11.8294L32.7334 13.9445C33.4663 14.5332 34.1334 15.2002 34.7221 15.9332Z" fill="#E44646"/>
<path d="M8.86262 25.4062H11.8531C11.8029 24.9443 11.7764 24.4753 11.7764 24C11.7764 23.5247 11.8029 23.0557 11.8531 22.5938H8.86262C8.28212 20.957 6.71902 19.7812 4.88574 19.7812C2.55952 19.7812 0.666992 21.6738 0.666992 24C0.666992 26.3262 2.55952 28.2188 4.88574 28.2188C6.71902 28.2188 8.28212 27.043 8.86262 25.4062Z" fill="#E44646"/>
<path d="M44.4487 19.7812C42.6154 19.7812 41.0523 20.957 40.4718 22.5938H37.4814C37.5316 23.0557 37.558 23.5247 37.558 24C37.558 24.4753 37.5315 24.9443 37.4814 25.4062H40.4718C41.0523 27.043 42.6154 28.2188 44.4487 28.2188C46.7749 28.2188 48.6674 26.3262 48.6674 24C48.6674 21.6738 46.7749 19.7812 44.4487 19.7812Z" fill="#E44646"/>
<path d="M36.8372 34.1815L34.7221 32.0664C34.1334 32.7993 33.4663 33.4664 32.7334 34.0551L34.8485 36.1702C34.1016 37.7381 34.3755 39.6747 35.6718 40.971C36.4942 41.7934 37.5746 42.2046 38.6548 42.2046C39.7352 42.2046 40.8156 41.7934 41.638 40.971C43.2829 39.3261 43.2829 36.6497 41.638 35.0048C40.3418 33.7085 38.4051 33.4345 36.8372 34.1815Z" fill="#E44646"/>
</g>
<defs>
<clipPath id="clip0_4012_11901">
<rect width="48" height="48" fill="white" transform="translate(0.666992)"/>
</clipPath>
</defs>
</svg>
