<svg width="49" height="48" viewBox="0 0 49 48" fill="none" xmlns="http://www.w3.org/2000/svg">
<path d="M18.457 14.6035H30.2084V19.0327H18.457V14.6035Z" fill="#E44646"/>
<path d="M18.457 36.3301H30.2084V40.7593H18.457V36.3301Z" fill="#E44646"/>
<path d="M18.457 21.8457H30.2084V26.2749H18.457V21.8457Z" fill="#E44646"/>
<path d="M18.457 43.5703H30.2084V47.9994H18.457V43.5703Z" fill="#E44646"/>
<path d="M18.457 29.0879H30.2084V33.5171H18.457V29.0879Z" fill="#E44646"/>
<path d="M24.3327 11.7917C27.5778 11.7917 30.2084 9.15203 30.2084 5.89584C30.2084 2.63966 27.5778 0 24.3327 0C21.0877 0 18.457 2.63966 18.457 5.89584C18.457 9.15203 21.0877 11.7917 24.3327 11.7917Z" fill="#E44646"/>
<path d="M2.4873 43.5703H14.2387V47.9994H2.4873V43.5703Z" fill="#E44646"/>
<path d="M2.4873 21.8457H14.2387V26.2749H2.4873V21.8457Z" fill="#E44646"/>
<path d="M2.4873 36.3301H14.2387V40.7593H2.4873V36.3301Z" fill="#E44646"/>
<path d="M2.4873 29.0879H14.2387V33.5171H2.4873V29.0879Z" fill="#E44646"/>
<path d="M8.36299 19.0337C11.608 19.0337 14.2387 16.3941 14.2387 13.1379C14.2387 9.8818 11.608 7.24219 8.36299 7.24219C5.11794 7.24219 2.4873 9.8818 2.4873 13.1379C2.4873 16.3941 5.11794 19.0337 8.36299 19.0337Z" fill="#E44646"/>
<path d="M34.4277 33.5171H46.1791V29.0879H40.3071C40.3059 29.0879 40.3046 29.0879 40.3035 29.0879C40.3024 29.0879 40.3011 29.0879 40.3 29.0879H34.4279V33.5171H34.4277Z" fill="#E44646"/>
<path d="M34.4277 43.5703H46.1791V47.9994H34.4277V43.5703Z" fill="#E44646"/>
<path d="M34.4277 36.3301H46.1791V40.7593H34.4277V36.3301Z" fill="#E44646"/>
<path d="M34.4277 20.3801C34.4277 23.6304 37.0626 26.2749 40.3016 26.2759H40.3052C43.5443 26.2749 46.1791 23.6304 46.1791 20.3801C46.1791 17.1292 43.5433 14.4844 40.3034 14.4844C37.0635 14.4844 34.4277 17.1292 34.4277 20.3801Z" fill="#E44646"/>
</svg>
