<svg width="38" height="38" viewBox="0 0 38 38" fill="none" xmlns="http://www.w3.org/2000/svg">
<path fill-rule="evenodd" clip-rule="evenodd" d="M28.5582 4.15625H9.44175L1.48376 13.1656C1.39628 13.2647 1.29596 13.3456 1.1875 13.4082V17.4668C1.29596 17.5294 1.39628 17.6103 1.48376 17.7094L9.44175 26.7188H28.5582L36.5162 17.7094C36.6037 17.6103 36.704 17.5294 36.8125 17.4668V13.4082C36.704 13.3456 36.6037 13.2647 36.5162 13.1656L28.5582 4.15625ZM12.4688 15.4375C12.4688 11.8304 15.3929 8.90625 19 8.90625C22.6071 8.90625 25.5312 11.8304 25.5312 15.4375C25.5312 19.0446 22.6071 21.9688 19 21.9688C15.3929 21.9688 12.4688 19.0446 12.4688 15.4375Z" fill="#E44646"/>
<path d="M36.8129 9.91349V7.71875C36.8129 5.75123 35.218 4.15625 33.2504 4.15625H31.7275L36.8129 9.91349Z" fill="#E44646"/>
<path d="M31.7275 26.7188L36.8129 20.9615V23.1563C36.8129 25.1238 35.218 26.7188 33.2504 26.7188H31.7275Z" fill="#E44646"/>
<path d="M4.75 4.15625H6.27291L1.1875 9.91349V7.71875C1.1875 5.75123 2.78248 4.15625 4.75 4.15625Z" fill="#E44646"/>
<path d="M6.27291 26.7187L1.1875 20.9615V23.1562C1.1875 25.1237 2.78248 26.7187 4.75 26.7187H6.27291Z" fill="#E44646"/>
<path d="M4.75 29.0938C4.75 28.4379 5.28166 27.9062 5.9375 27.9062H32.0625C32.7184 27.9062 33.25 28.4379 33.25 29.0938C33.25 29.7496 32.7184 30.2812 32.0625 30.2812H5.9375C5.28166 30.2812 4.75 29.7496 4.75 29.0938Z" fill="#E44646"/>
<path d="M8.90625 32.6562C8.90625 32.0004 9.43789 31.4688 10.0938 31.4688H27.9062C28.5621 31.4688 29.0938 32.0004 29.0938 32.6562C29.0938 33.3121 28.5621 33.8438 27.9062 33.8438H10.0938C9.43789 33.8438 8.90625 33.3121 8.90625 32.6562Z" fill="#E44646"/>
</svg>
