<svg width="49" height="48" viewBox="0 0 49 48" fill="none" xmlns="http://www.w3.org/2000/svg">
<g clip-path="url(#clip0_4012_11876)">
<path d="M38.83 24.1003C39.3617 23.2515 39.4137 22.1997 38.9702 21.2893C36.9385 17.1053 32.986 14.1562 26.7366 14.1562C19.0689 14.1562 12.6961 20.3331 12.6961 28.2188L12.6917 29.5426C12.6712 33.6281 12.6422 39.3168 14.1049 46.8574C14.2312 47.5206 14.812 48 15.4862 48H30.955C31.7325 48 32.3612 47.3708 32.3612 46.5938V45.0773C32.3623 43.4941 32.9574 41.9568 34.0107 40.6589C37.4706 38.7327 39.9044 35.272 40.419 31.236C40.6241 29.6217 39.2504 28.2188 37.6035 28.2188C36.1933 28.2188 35.0053 29.209 34.8405 30.5175L34.8332 30.4644C33.8451 34.0269 30.6133 36.6562 26.7366 36.6562C22.0766 36.6562 18.2991 32.8788 18.2991 28.2188C18.2991 23.5587 22.0766 19.7812 26.7366 19.7812C29.7787 19.7812 32.422 21.4065 33.9063 23.8209L33.8905 23.7059C34.9654 25.89 37.6958 25.9098 38.83 24.1003Z" fill="#E44646"/>
<path d="M8.26438 2.73706L8.2274 3.88806C8.06443 9.85107 8.93345 17.072 10.655 23.1676C10.8857 22.4323 11.1809 21.7269 11.5061 21.0385C11.8807 16.6985 12.7069 12.5808 14.0066 8.63672C13.8703 7.10962 13.8085 5.57666 13.8509 4.04041L13.8868 2.89087C13.9304 1.40991 12.8025 0.0435791 11.0729 0C9.53624 0 8.30284 1.20447 8.26438 2.73706Z" fill="#E44646"/>
<path d="M23.777 0.297557C22.4216 -0.389088 20.6788 0.201244 20.0017 1.55549L19.4084 2.74201C17.2526 7.05781 15.8298 11.5758 14.9912 16.1387C16.2521 14.9097 17.7169 13.8997 19.3092 13.1105C20.1277 12.0672 20.9773 11.0272 21.8749 10.0153C22.2155 9.63154 22.5714 9.30159 22.9164 8.93245C23.3646 7.71553 23.8575 6.4217 24.4402 5.25642L25.0334 4.06843C25.738 2.65925 25.144 0.978343 23.777 0.297557Z" fill="#E44646"/>
<path d="M31.8287 12.0155C32.4268 11.4856 32.99 10.9161 33.6155 10.4199L34.6552 9.59447C35.8713 8.62841 36.0735 6.85704 35.1082 5.64232C34.1718 4.46532 32.3301 4.25255 31.156 5.18895L30.1163 6.01439C28.1414 7.58324 26.1924 9.45421 24.3086 11.5398C25.104 11.4241 25.91 11.3442 26.7366 11.3442C28.5548 11.3442 30.2511 11.5826 31.8287 12.0155Z" fill="#E44646"/>
</g>
<defs>
<clipPath id="clip0_4012_11876">
<rect width="48" height="48" fill="white" transform="translate(0.333008)"/>
</clipPath>
</defs>
</svg>
