<svg width="16" height="16" viewBox="0 0 16 16" fill="none" xmlns="http://www.w3.org/2000/svg">
<path d="M8.82759 16C10.7298 16 12.5542 15.1571 13.8992 13.6569C15.2443 12.1566 16 10.1217 16 8C16 5.87827 15.2443 3.84344 13.8992 2.34315C12.5542 0.842855 10.7298 -9.71666e-08 8.82759 -5.68248e-07L8.82759 2.57637C10.1172 2.57637 11.354 3.14779 12.2659 4.16492C13.1778 5.18205 13.6901 6.56157 13.6901 8C13.6901 9.43843 13.1778 10.818 12.2659 11.8351C11.354 12.8522 10.1172 13.4236 8.82759 13.4236L8.82759 16Z" fill="#9A1818"/>
<ellipse cx="7.72444" cy="7.99977" rx="2.75862" ry="3.07692" fill="#9A1818"/>
<rect y="7.38477" width="6.06897" height="1.23077" fill="#9A1818"/>
</svg>
