<svg width="48" height="48" viewBox="0 0 48 48" fill="none" xmlns="http://www.w3.org/2000/svg">
<g clip-path="url(#clip0_4012_11892)">
<path d="M46.4004 6.25781V6.26021L47.1876 6.39941L46.4004 6.25781Z" fill="#E44646"/>
<path d="M32.2787 32.0008C32.0232 32.0197 31.7808 32.1215 31.5885 32.2907C31.3962 32.4599 31.2643 32.6874 31.2131 32.9384C31.1931 33.0236 31.192 33.1121 31.2099 33.1978C31.2277 33.2835 31.264 33.3642 31.3163 33.4344C31.3673 33.4906 31.4301 33.5346 31.5003 33.5634C31.5705 33.5922 31.6462 33.605 31.7219 33.6008C31.9774 33.5819 32.2198 33.4801 32.4121 33.3109C32.6044 33.1416 32.7363 32.9142 32.7875 32.6632C32.8075 32.578 32.8086 32.4894 32.7907 32.4038C32.7729 32.3181 32.7366 32.2374 32.6843 32.1672C32.6333 32.111 32.5705 32.0669 32.5003 32.0381C32.4301 32.0093 32.3544 31.9966 32.2787 32.0008Z" fill="#E44646"/>
<path d="M40.3042 11.594C39.8343 11.0314 39.5592 10.3317 39.5202 9.59961H32.8138C32.5308 10.4045 32.0392 11.1198 31.3891 11.6724C30.739 12.2249 29.9538 12.5949 29.1138 12.7444L25.1338 35.3124C25.822 35.4797 26.4386 35.8626 26.8938 36.4052C27.3647 36.9675 27.6406 37.6673 27.6802 38.3996H34.3866C34.6695 37.5947 35.1612 36.8794 35.8113 36.3268C36.4614 35.7743 37.2466 35.4043 38.0866 35.2548L42.0666 12.6876C41.3776 12.5202 40.7601 12.137 40.3042 11.594ZM34.3642 32.9364C34.2493 33.5591 33.9242 34.1235 33.4433 34.5354C32.9624 34.9473 32.3547 35.1817 31.7218 35.1996C31.4125 35.2051 31.1059 35.142 30.8239 35.0147C30.542 34.8875 30.2918 34.6992 30.0914 34.4636C29.8888 34.2148 29.7431 33.9247 29.6644 33.6136C29.5858 33.3025 29.5762 32.978 29.6362 32.6628C29.7511 32.0401 30.0762 31.4757 30.5571 31.0638C31.038 30.6519 31.6456 30.4175 32.2786 30.3996C32.5879 30.3941 32.8945 30.4572 33.1765 30.5845C33.4584 30.7117 33.7086 30.9 33.909 31.1356C34.1116 31.3844 34.2573 31.6745 34.336 31.9856C34.4146 32.2967 34.4242 32.6212 34.3642 32.9364ZM37.5394 24.1364C37.3453 25.1974 36.7932 26.1597 35.9753 26.8627C35.1574 27.5658 34.1231 27.9671 33.045 27.9996C32.5429 28.0102 32.0448 27.9092 31.5865 27.7037C31.1283 27.4982 30.7215 27.1935 30.3954 26.8116C30.0654 26.4034 29.8287 25.9279 29.7018 25.4185C29.5749 24.9091 29.561 24.3781 29.661 23.8628C29.8551 22.8019 30.4072 21.8396 31.2251 21.1365C32.043 20.4334 33.0773 20.0322 34.1554 19.9996C34.6575 19.989 35.1556 20.0901 35.6138 20.2955C36.0721 20.501 36.4789 20.8057 36.805 21.1876C37.135 21.5959 37.3717 22.0713 37.4986 22.5807C37.6254 23.0901 37.6394 23.6211 37.5394 24.1364ZM37.5642 15.3364C37.4493 15.9591 37.1242 16.5235 36.6433 16.9354C36.1624 17.3473 35.5547 17.5817 34.9218 17.5996C34.6125 17.6052 34.3059 17.542 34.0239 17.4147C33.742 17.2875 33.4918 17.0992 33.2914 16.8636C33.0887 16.6148 32.943 16.3247 32.8643 16.0136C32.7857 15.7025 32.7761 15.378 32.8362 15.0628C32.9511 14.4401 33.2762 13.8757 33.7571 13.4638C34.238 13.0519 34.8456 12.8175 35.4786 12.7996C35.7879 12.7941 36.0945 12.8572 36.3765 12.9845C36.6584 13.1118 36.9086 13.3 37.109 13.5356C37.3116 13.7844 37.4574 14.0745 37.536 14.3856C37.6147 14.6967 37.6243 15.0212 37.5642 15.3364Z" fill="#E44646"/>
<path d="M35.4788 14.3992C35.2234 14.4179 34.9811 14.5196 34.7887 14.6887C34.5964 14.8578 34.4645 15.0851 34.4132 15.336C34.3933 15.4214 34.3922 15.51 34.4101 15.5958C34.4279 15.6816 34.4642 15.7625 34.5164 15.8328C34.5674 15.889 34.6303 15.9331 34.7004 15.9619C34.7706 15.9907 34.8463 16.0034 34.922 15.9992C35.1775 15.9805 35.4198 15.8789 35.6122 15.7098C35.8045 15.5407 35.9364 15.3134 35.9876 15.0624C36.0076 14.9771 36.0086 14.8884 35.9908 14.8026C35.973 14.7168 35.9367 14.636 35.8844 14.5656C35.8335 14.5094 35.7706 14.4654 35.7005 14.4366C35.6303 14.4078 35.5546 14.395 35.4788 14.3992Z" fill="#E44646"/>
<path d="M34.1547 21.6006C33.4561 21.6405 32.7905 21.9113 32.2624 22.3704C31.7343 22.8296 31.3737 23.4511 31.2371 24.1374C31.1754 24.4228 31.1776 24.7184 31.2435 25.0029C31.3095 25.2875 31.4376 25.5538 31.6187 25.783C31.7959 25.9849 32.0157 26.145 32.2622 26.2518C32.5087 26.3586 32.7758 26.4094 33.0443 26.4006C33.743 26.3607 34.4086 26.0899 34.9366 25.6308C35.4647 25.1716 35.8253 24.5501 35.9619 23.8638C36.0237 23.5783 36.0215 23.2827 35.9555 22.9982C35.8895 22.7137 35.7614 22.4473 35.5803 22.2182C35.4031 22.0163 35.1833 21.8562 34.9368 21.7494C34.6903 21.6426 34.4232 21.5918 34.1547 21.6006Z" fill="#E44646"/>
<path d="M2.39963 17.5996H15.9996C16.6362 17.5996 17.2466 17.8525 17.6967 18.3026C18.1468 18.7526 18.3996 19.3631 18.3996 19.9996C18.3996 20.6361 18.1468 21.2466 17.6967 21.6967C17.2466 22.1468 16.6362 22.3996 15.9996 22.3996H4.79963C4.58746 22.3996 4.38398 22.4839 4.23395 22.6339C4.08392 22.784 3.99963 22.9874 3.99963 23.1996C3.99885 23.3028 4.01877 23.4051 4.05821 23.5005C4.09764 23.5958 4.1558 23.6823 4.22923 23.7548C4.30258 23.8324 4.39102 23.8941 4.48912 23.9362C4.58721 23.9783 4.69288 23.9999 4.79963 23.9996H10.7916C11.1605 23.9996 11.5257 24.0725 11.8663 24.214C12.2069 24.3556 12.5162 24.5631 12.7764 24.8245C13.0365 25.086 13.2425 25.3962 13.3824 25.7375C13.5223 26.0788 13.5934 26.4444 13.5916 26.8132C13.5847 27.5526 13.2877 28.2596 12.7644 28.782C12.506 29.042 12.1986 29.2481 11.8599 29.3884C11.5213 29.5288 11.1582 29.6005 10.7916 29.5996H4.88763C4.67808 29.593 4.47326 29.6628 4.31135 29.796C4.14945 29.9292 4.0415 30.1167 4.00763 30.3236C3.99442 30.4391 4.00789 30.556 4.047 30.6655C4.08611 30.7749 4.14983 30.8739 4.23323 30.9548C4.30606 31.032 4.39384 31.0934 4.49122 31.1355C4.58861 31.1776 4.69354 31.1994 4.79963 31.1996H14.3996C15.0362 31.1996 15.6466 31.4525 16.0967 31.9026C16.5468 32.3526 16.7996 32.9631 16.7996 33.5996C16.7996 34.2361 16.5468 34.8466 16.0967 35.2967C15.6466 35.7468 15.0362 35.9996 14.3996 35.9996H7.99963C7.78746 35.9996 7.58398 36.0839 7.43395 36.2339C7.28392 36.384 7.19963 36.5874 7.19963 36.7996C7.19869 36.9027 7.21853 37.0049 7.25798 37.1002C7.29743 37.1954 7.35567 37.2818 7.42923 37.354C7.50248 37.4318 7.59089 37.4937 7.68899 37.5359C7.7871 37.5781 7.89282 37.5998 7.99963 37.5996H19.9052L24.8428 9.59961H8.79963C8.58746 9.59961 8.38398 9.6839 8.23395 9.83392C8.08392 9.98395 7.99963 10.1874 7.99963 10.3996C7.99885 10.5028 8.01877 10.6051 8.05821 10.7005C8.09764 10.7958 8.1558 10.8823 8.22923 10.9548C8.30258 11.0324 8.39102 11.0941 8.48912 11.1362C8.58721 11.1783 8.69288 11.1999 8.79963 11.1996H15.9996C16.6362 11.1996 17.2466 11.4525 17.6967 11.9026C18.1468 12.3526 18.3996 12.9631 18.3996 13.5996C18.3996 14.2361 18.1468 14.8466 17.6967 15.2967C17.2466 15.7468 16.6362 15.9996 15.9996 15.9996H2.39963C2.18746 15.9996 1.98398 16.0839 1.83395 16.2339C1.68392 16.384 1.59963 16.5874 1.59963 16.7996C1.59885 16.9028 1.61877 17.0051 1.65821 17.1005C1.69764 17.1958 1.7558 17.2823 1.82923 17.3548C1.90258 17.4324 1.99102 17.4941 2.08912 17.5362C2.18721 17.5783 2.29288 17.5999 2.39963 17.5996Z" fill="#E44646"/>
<path d="M47.2 41.6004H40.04C40.0751 41.5925 40.1075 41.5757 40.1341 41.5516C40.1608 41.5275 40.1807 41.4969 40.192 41.4628L46.3752 6.40039H27.16C27.1249 6.40824 27.0925 6.42505 27.0659 6.44916C27.0392 6.47328 27.0193 6.50388 27.008 6.53799L20.8248 41.6004H0.8C0.587827 41.6004 0.384344 41.6847 0.234315 41.8347C0.0842855 41.9847 0 42.1882 0 42.4004C0 42.6126 0.0842855 42.8161 0.234315 42.9661C0.384344 43.1161 0.587827 43.2004 0.8 43.2004H47.2C47.4122 43.2004 47.6157 43.1161 47.7657 42.9661C47.9157 42.8161 48 42.6126 48 42.4004C48 42.1882 47.9157 41.9847 47.7657 41.8347C47.6157 41.6847 47.4122 41.6004 47.2 41.6004ZM38.768 36.8004C38.0608 36.8347 37.385 37.1026 36.8463 37.562C36.3076 38.0215 35.9366 38.6467 35.7912 39.3396C35.7585 39.5247 35.6617 39.6923 35.5178 39.8131C35.3738 39.934 35.1919 40.0003 35.004 40.0004H26.836C26.7192 40.0003 26.6038 39.9746 26.498 39.9252C26.3922 39.8758 26.2985 39.8038 26.2235 39.7143C26.1485 39.6248 26.0939 39.5199 26.0638 39.4071C26.0336 39.2943 26.0285 39.1762 26.0488 39.0612C26.1097 38.7789 26.1074 38.4865 26.042 38.2052C25.9766 37.9238 25.8497 37.6605 25.6704 37.434C25.4875 37.2261 25.2607 37.0615 25.0064 36.9519C24.7521 36.8423 24.4767 36.7906 24.2 36.8004C24.0832 36.8003 23.9678 36.7746 23.862 36.7252C23.7562 36.6758 23.6625 36.6038 23.5875 36.5143C23.5125 36.4248 23.4579 36.3199 23.4278 36.2071C23.3976 36.0943 23.3925 35.9762 23.4128 35.8612L27.6448 11.8612C27.6775 11.6761 27.7743 11.5085 27.9182 11.3877C28.0622 11.2668 28.2441 11.2005 28.432 11.2004C29.1392 11.1661 29.815 10.8982 30.3537 10.4388C30.8924 9.97927 31.2634 9.35412 31.4088 8.66119C31.4415 8.47613 31.5383 8.30848 31.6822 8.18766C31.8262 8.06683 32.0081 8.00053 32.196 8.00039H40.364C40.4808 8.00048 40.5961 8.02614 40.702 8.07556C40.8078 8.12499 40.9015 8.19699 40.9765 8.2865C41.0515 8.37601 41.1061 8.48086 41.1362 8.59369C41.1664 8.70651 41.1715 8.82458 41.1512 8.93959C41.0903 9.22194 41.0927 9.51426 41.1581 9.79558C41.2235 10.0769 41.3504 10.3403 41.5296 10.5668C41.7125 10.7747 41.9393 10.9393 42.1936 11.0489C42.4479 11.1585 42.7233 11.2102 43 11.2004C43.1168 11.2005 43.2322 11.2261 43.338 11.2756C43.4438 11.325 43.5375 11.397 43.6125 11.4865C43.6875 11.576 43.7421 11.6809 43.7722 11.7937C43.8024 11.9065 43.8075 12.0246 43.7872 12.1396L39.5552 36.1396C39.5225 36.3247 39.4257 36.4923 39.2818 36.6131C39.1378 36.734 38.9559 36.8003 38.768 36.8004Z" fill="#E44646"/>
</g>
<defs>
<clipPath id="clip0_4012_11892">
<rect width="48" height="48" fill="white"/>
</clipPath>
</defs>
</svg>
