<svg width="38" height="38" viewBox="0 0 38 38" fill="none" xmlns="http://www.w3.org/2000/svg">
<g clip-path="url(#clip0_4001_424)">
<path d="M8.56589 36.0606C8.99576 35.6308 9.33676 35.1205 9.56943 34.5589C9.80209 33.9973 9.92186 33.3953 9.92189 32.7875C9.92193 32.1796 9.80223 31.5776 9.56963 31.016C9.33703 30.4543 8.99608 29.944 8.56626 29.5141C8.13644 29.0843 7.62615 28.7433 7.06454 28.5106C6.50294 28.2779 5.901 28.1582 5.2931 28.1581C4.68521 28.1581 4.08326 28.2778 3.52162 28.5104C2.95999 28.743 2.44967 29.084 2.01979 29.5138C0.732099 30.8007 0.222959 32.7965 0.0633885 34.6037C-0.0280195 35.6262 -0.0220552 36.655 0.081201 37.6764C0.108662 37.9324 0.355068 37.9903 0.397373 37.9977H0.40999C0.513154 37.9977 1.99233 38.0311 2.44804 36.5876C2.52988 36.3184 2.65012 36.0624 2.80503 35.8276C2.86925 35.735 2.96285 35.6667 3.07068 35.634C3.17851 35.6012 3.29424 35.6058 3.39912 35.6471C3.504 35.6883 3.59188 35.7637 3.64853 35.8612C3.70518 35.9586 3.72728 36.0723 3.71124 36.1838C3.63721 36.7321 3.75101 37.2893 4.03409 37.7647C4.06503 37.8176 4.11113 37.86 4.16643 37.8865C4.22173 37.913 4.2837 37.9222 4.34433 37.9131C5.89401 37.6756 7.48081 37.1457 8.56589 36.0606Z" fill="#E44646"/>
<path d="M37.9642 3.47191C37.8521 1.53555 36.465 0.148398 34.5286 0.0363274C27.9513 -0.355548 20.6215 2.43359 14.9052 8.14992L13.3807 9.67437C12.831 10.2236 12.309 10.7872 11.8147 11.3651H7.00828C5.98777 11.4044 5.08527 11.993 4.57465 12.8569L1.74914 18.5086C1.67368 18.7115 1.62091 18.9221 1.5918 19.1365C1.59624 19.5001 1.74292 19.8475 2.00039 20.1043C2.25787 20.3611 2.60568 20.5068 2.9693 20.5103H6.53773C6.07461 22.0689 6.38336 23.603 7.37418 24.5923L13.4074 30.6256C14.3975 31.6164 15.9309 31.9252 17.4895 31.462V35.0342C17.4939 35.3972 17.64 35.744 17.8967 36.0007C18.1534 36.2574 18.5003 36.4035 18.8632 36.408C19.0777 36.3788 19.2883 36.3261 19.4911 36.2506L25.1429 33.4251C26.0068 32.9145 26.5954 32.015 26.6347 30.9915V26.1858C27.2111 25.691 27.7747 25.169 28.3254 24.6198L29.8498 23.0953C35.5669 17.379 38.3561 10.0492 37.9642 3.47191ZM29.956 14.9246C29.2756 15.605 28.4087 16.0684 27.465 16.2561C26.5213 16.4438 25.5431 16.3475 24.6541 15.9793C23.7651 15.6111 23.0053 14.9875 22.4707 14.1875C21.9361 13.3874 21.6508 12.4468 21.6508 11.4846C21.6508 10.5223 21.9361 9.58174 22.4707 8.78168C23.0053 7.98162 23.7651 7.35806 24.6541 6.98984C25.5431 6.62162 26.5213 6.52529 27.465 6.71302C28.4087 6.90076 29.2756 7.36412 29.956 8.04453C30.8683 8.9569 31.3808 10.1943 31.3808 11.4846C31.3808 12.7748 30.8683 14.0122 29.956 14.9246Z" fill="#E44646"/>
<path d="M5.87216 7.58659C5.60698 7.32131 5.45801 6.96158 5.45801 6.58649C5.45801 6.2114 5.60698 5.85167 5.87216 5.58639L9.53559 1.92296C9.80133 1.65722 10.1617 1.50793 10.5375 1.50793C10.9134 1.50793 11.2738 1.65722 11.5395 1.92296C11.8052 2.18869 11.9545 2.5491 11.9545 2.92491C11.9545 3.30072 11.8052 3.66113 11.5395 3.92686L7.87606 7.5903C7.7444 7.72192 7.58805 7.82625 7.41598 7.89732C7.24391 7.96839 7.05951 8.0048 6.87334 8.00445C6.68717 8.00411 6.5029 7.96702 6.3311 7.89531C6.15929 7.82361 6.00333 7.71869 5.87216 7.58659Z" fill="#E44646"/>
<path d="M0.56208 6.74718C0.297807 6.48202 0.149414 6.12292 0.149414 5.74856C0.149414 5.3742 0.297807 5.0151 0.56208 4.74995L2.44056 2.8685C2.70749 2.61157 3.06458 2.46961 3.43506 2.47315C3.80555 2.47668 4.15986 2.62543 4.42184 2.88741C4.68383 3.1494 4.83257 3.50371 4.83611 3.87419C4.83964 4.24468 4.69769 4.60176 4.44075 4.8687L2.56228 6.74718C2.43122 6.87901 2.2754 6.98363 2.10376 7.05503C1.93213 7.12642 1.74807 7.16318 1.56218 7.16318C1.37629 7.16318 1.19223 7.12642 1.02059 7.05503C0.848958 6.98363 0.693133 6.87901 0.56208 6.74718Z" fill="#E44646"/>
<path d="M30.2939 32.0076C30.1621 31.8765 30.0575 31.7207 29.9861 31.549C29.9147 31.3774 29.8779 31.1934 29.8779 31.0075C29.8779 30.8216 29.9147 30.6375 29.9861 30.4659C30.0575 30.2942 30.1621 30.1384 30.2939 30.0074L33.9566 26.3476C34.2219 26.0819 34.5818 25.9324 34.9573 25.9321C35.3327 25.9317 35.6929 26.0805 35.9587 26.3458C36.2244 26.611 36.3739 26.971 36.3742 27.3464C36.3746 27.7219 36.2258 28.0821 35.9605 28.3478L32.2978 32.0113C32.1662 32.1429 32.0098 32.2472 31.8378 32.3183C31.6657 32.3894 31.4813 32.4258 31.2951 32.4254C31.1089 32.4251 30.9247 32.388 30.7529 32.3163C30.5811 32.2446 30.4251 32.1397 30.2939 32.0076Z" fill="#E44646"/>
<path d="M31.1329 37.3179C30.8677 37.0526 30.7188 36.6929 30.7188 36.3178C30.7188 35.9427 30.8677 35.583 31.1329 35.3177L33.0114 33.4392C33.1427 33.3077 33.2987 33.2032 33.4704 33.1319C33.6421 33.0606 33.8261 33.0239 34.012 33.0237C34.1979 33.0235 34.382 33.06 34.5539 33.1309C34.7257 33.2019 34.8818 33.3061 35.0134 33.4374C35.145 33.5687 35.2494 33.7247 35.3207 33.8964C35.392 34.0681 35.4288 34.2521 35.429 34.438C35.4292 34.6239 35.3927 34.8081 35.3217 34.9799C35.2507 35.1517 35.1466 35.3079 35.0153 35.4394L33.1368 37.3179C33.0054 37.4499 32.8493 37.5546 32.6773 37.626C32.5054 37.6975 32.321 37.7342 32.1348 37.7342C31.9487 37.7342 31.7643 37.6975 31.5923 37.626C31.4204 37.5546 31.2643 37.4499 31.1329 37.3179Z" fill="#E44646"/>
</g>
<defs>
<clipPath id="clip0_4001_424">
<rect width="38" height="38" fill="white"/>
</clipPath>
</defs>
</svg>
