<svg width="48" height="48" viewBox="0 0 48 48" fill="none" xmlns="http://www.w3.org/2000/svg">
<g clip-path="url(#clip0_4012_11882)">
<path d="M21.1875 37.6589C21.1875 34.1455 22.5557 30.8425 25.0401 28.3581C27.5244 25.8738 30.8275 24.5056 34.3409 24.5056C36.1852 24.5056 37.9714 24.8832 39.6119 25.6009L47.9926 17.4318L31.414 15.0228L23.9997 0L16.5854 15.0228L0.00683594 17.4318L12.0032 29.1255L9.17123 45.6371L21.2846 39.2688C21.2203 38.7387 21.1875 38.2013 21.1875 37.6589Z" fill="#E44646"/>
<path d="M34.3412 27.3184C28.6299 27.3184 24 31.9483 24 37.6595C24 43.3708 28.6299 48.0007 34.3412 48.0007C40.0525 48.0007 44.6823 43.3708 44.6823 37.6595C44.6824 31.9483 40.0525 27.3184 34.3412 27.3184ZM33.347 42.3822L28.873 37.908L30.8614 35.9196L33.3471 38.4051L37.8211 33.9311L39.8096 35.9196L33.347 42.3822Z" fill="#E44646"/>
</g>
<defs>
<clipPath id="clip0_4012_11882">
<rect width="48" height="48" fill="white"/>
</clipPath>
</defs>
</svg>
