<svg width="38" height="38" viewBox="0 0 38 38" fill="none" xmlns="http://www.w3.org/2000/svg">
<g clip-path="url(#clip0_4001_455)">
<path d="M19.8015 18.2344C19.7953 18.2279 19.7935 18.2192 19.7871 18.2129L13.4337 11.8594V7.8672C13.4337 7.57144 13.3163 7.28882 13.1076 7.08004L6.42792 0.326207C6.11049 0.00884764 5.63104 -0.0879336 5.2146 0.0849219C4.79823 0.256664 4.52748 0.663309 4.52748 1.11337V4.45321H1.11342C0.663428 4.45314 0.256784 4.72382 0.0850417 5.14026C-0.0878138 5.55663 0.0078542 6.03504 0.326401 6.35359L7.08031 13.1074C7.28908 13.3162 7.57171 13.4336 7.8674 13.4336H11.8596L18.213 19.787C18.2194 19.7934 18.228 19.7952 18.2346 19.8014C18.668 20.2151 19.3264 20.2206 19.7656 19.8014C20.2282 19.36 20.2178 18.6705 19.8015 18.2344Z" fill="#E44646"/>
<path d="M18.9999 0.00012207C16.1513 0.00012207 13.4579 0.724868 11.0326 1.85693L14.4477 5.27203C15.881 4.7954 17.4087 4.52747 18.9999 4.52747C26.9799 4.52739 33.4724 11.02 33.4724 19C33.4724 26.9799 26.9799 33.4726 18.9999 33.4726C11.0199 33.4726 4.52727 26.98 4.52727 19C4.52727 17.4087 4.79527 15.8811 5.27183 14.4478L1.85673 11.0327C0.72482 13.4581 0 16.1514 0 19C0 29.4358 8.56403 37.9999 18.9999 37.9999C29.4357 37.9999 37.9998 29.4358 37.9998 19C37.9998 8.56415 29.4358 0.00012207 18.9999 0.00012207Z" fill="#E44646"/>
<path d="M18.9999 8.98053C17.8232 8.98053 16.7099 9.22174 15.6601 9.59603V10.9375L18.2338 13.5111C18.4866 13.4758 18.7376 13.4337 18.9999 13.4337C22.0691 13.4337 24.5663 15.9309 24.5663 19.0001C24.5663 22.0692 22.0691 24.5665 18.9999 24.5665C15.9308 24.5665 13.4335 22.0692 13.4335 19.0001C13.4335 18.7376 13.4757 18.4866 13.511 18.2339L10.9374 15.6601H9.59596C9.22168 16.71 8.98047 17.8232 8.98047 19C8.98047 24.5251 13.4749 29.0194 18.9999 29.0194C24.5249 29.0194 29.0195 24.5251 29.0195 19C29.0195 13.4749 24.525 8.98053 18.9999 8.98053Z" fill="#E44646"/>
</g>
<defs>
<clipPath id="clip0_4001_455">
<rect width="38" height="38" fill="white"/>
</clipPath>
</defs>
</svg>
