<svg width="56" height="57" viewBox="0 0 56 57" fill="none" xmlns="http://www.w3.org/2000/svg">
<path d="M51.3332 28.8919H45.5465C44.5268 28.8897 43.5344 29.2216 42.7211 29.8368C41.9079 30.4521 41.3185 31.3167 41.0432 32.2986L35.5598 51.8053C35.5245 51.9264 35.4508 52.0329 35.3498 52.1086C35.2489 52.1843 35.1261 52.2253 34.9998 52.2253C34.8736 52.2253 34.7508 52.1843 34.6498 52.1086C34.5489 52.0329 34.4752 51.9264 34.4398 51.8053L21.5598 5.97859C21.5245 5.85743 21.4508 5.75099 21.3498 5.67526C21.2489 5.59953 21.1261 5.55859 20.9998 5.55859C20.8736 5.55859 20.7508 5.59953 20.6498 5.67526C20.5489 5.75099 20.4752 5.85743 20.4398 5.97859L14.9565 25.4853C14.6823 26.4633 14.0964 27.3251 13.2879 27.94C12.4793 28.5548 11.4922 28.889 10.4765 28.8919H4.6665" stroke="url(#paint0_linear_10035_19074)" stroke-width="3.33333" stroke-linecap="round" stroke-linejoin="round"/>
<defs>
<linearGradient id="paint0_linear_10035_19074" x1="4.6665" y1="5.55859" x2="52.8868" y2="8.15579" gradientUnits="userSpaceOnUse">
<stop stop-color="#2671B2"/>
<stop offset="1" stop-color="#0088FF"/>
</linearGradient>
</defs>
</svg>
