<svg width="57" height="57" viewBox="0 0 57 57" fill="none" xmlns="http://www.w3.org/2000/svg">
<path d="M30.9235 18.7733L35.0768 25.008M33.3782 30.7293L25.6222 34.052M47.0002 10.224L32.8602 13.759M7.3335 7.89062V45.224C7.3335 46.4616 7.82516 47.6486 8.70033 48.5238C9.5755 49.399 10.7625 49.8906 12.0002 49.8906H49.3335M33.0002 14.8906C33.0002 17.468 30.9108 19.5573 28.3335 19.5573C25.7562 19.5573 23.6668 17.468 23.6668 14.8906C23.6668 12.3133 25.7562 10.224 28.3335 10.224C30.9108 10.224 33.0002 12.3133 33.0002 14.8906ZM42.3335 28.8906C42.3335 31.468 40.2442 33.5573 37.6668 33.5573C35.0895 33.5573 33.0002 31.468 33.0002 28.8906C33.0002 26.3133 35.0895 24.224 37.6668 24.224C40.2442 24.224 42.3335 26.3133 42.3335 28.8906ZM26.0002 35.8906C26.0002 38.468 23.9108 40.5573 21.3335 40.5573C18.7562 40.5573 16.6668 38.468 16.6668 35.8906C16.6668 33.3133 18.7562 31.224 21.3335 31.224C23.9108 31.224 26.0002 33.3133 26.0002 35.8906Z" stroke="url(#paint0_linear_10035_19116)" stroke-width="3.33333" stroke-linecap="round" stroke-linejoin="round"/>
<defs>
<linearGradient id="paint0_linear_10035_19116" x1="7.3335" y1="7.89062" x2="50.7317" y2="10.2281" gradientUnits="userSpaceOnUse">
<stop stop-color="#2671B2"/>
<stop offset="1" stop-color="#0088FF"/>
</linearGradient>
</defs>
</svg>
