<svg width="57" height="57" viewBox="0 0 57 57" fill="none" xmlns="http://www.w3.org/2000/svg">
<path d="M19.1002 47.5561C23.5535 49.8406 28.6764 50.4593 33.5456 49.3009C38.4148 48.1425 42.7101 45.283 45.6576 41.2378C48.6051 37.1927 50.0108 32.2278 49.6215 27.2378C49.2322 22.2479 47.0735 17.561 43.5344 14.0219C39.9952 10.4827 35.3084 8.32402 30.3185 7.93474C25.3285 7.54545 20.3636 8.95121 16.3184 11.8987C12.2732 14.8461 9.41378 19.1415 8.25535 24.0107C7.09692 28.8799 7.71569 34.0027 10.0002 38.4561L5.3335 52.2228L19.1002 47.5561Z" stroke="url(#paint0_linear_10035_19137)" stroke-width="3.33333" stroke-linecap="round" stroke-linejoin="round"/>
<defs>
<linearGradient id="paint0_linear_10035_19137" x1="5.3335" y1="7.87109" x2="51.1617" y2="10.3395" gradientUnits="userSpaceOnUse">
<stop stop-color="#2671B2"/>
<stop offset="1" stop-color="#0088FF"/>
</linearGradient>
</defs>
</svg>
