<svg width="56" height="57" viewBox="0 0 56 57" fill="none" xmlns="http://www.w3.org/2000/svg">
<path d="M28.0002 35.8925L21.0002 28.8925M28.0002 35.8925C31.2595 34.6529 34.3862 33.0895 37.3335 31.2258M28.0002 35.8925V47.5592C28.0002 47.5592 35.0702 46.2758 37.3335 42.8925C39.8535 39.1125 37.3335 31.2258 37.3335 31.2258M21.0002 28.8925C22.2418 25.6712 23.8053 22.5833 25.6668 19.6758C28.3856 15.3288 32.1713 11.7496 36.6638 9.27872C41.1564 6.80782 46.2064 5.52737 51.3335 5.55917C51.3335 11.9058 49.5135 23.0592 37.3335 31.2258M21.0002 28.8925H9.3335C9.3335 28.8925 10.6168 21.8225 14.0002 19.5592C17.7802 17.0392 25.6668 19.5592 25.6668 19.5592M10.5002 39.3925C7.00016 42.3325 5.8335 51.0592 5.8335 51.0592C5.8335 51.0592 14.5602 49.8925 17.5002 46.3925C19.1568 44.4325 19.1335 41.4225 17.2902 39.6025C16.3832 38.7369 15.1885 38.2367 13.9354 38.1979C12.6822 38.1591 11.4589 38.5846 10.5002 39.3925Z" stroke="url(#paint0_linear_10035_19061)" stroke-width="3.33333" stroke-linecap="round" stroke-linejoin="round"/>
<defs>
<linearGradient id="paint0_linear_10035_19061" x1="5.8335" y1="5.55859" x2="52.8483" y2="8.09083" gradientUnits="userSpaceOnUse">
<stop stop-color="#2671B2"/>
<stop offset="1" stop-color="#0088FF"/>
</linearGradient>
</defs>
</svg>
