<svg width="56" height="57" viewBox="0 0 56 57" fill="none" xmlns="http://www.w3.org/2000/svg">
<path d="M46.6668 31.2224C46.6668 42.8891 38.5002 48.7224 28.7935 52.1057C28.2852 52.278 27.7331 52.2697 27.2302 52.0824C17.5002 48.7224 9.3335 42.8891 9.3335 31.2224V14.8891C9.3335 14.2702 9.57933 13.6767 10.0169 13.2392C10.4545 12.8016 11.048 12.5557 11.6668 12.5557C16.3335 12.5557 22.1668 9.75574 26.2268 6.20907C26.7212 5.78673 27.35 5.55469 28.0002 5.55469C28.6503 5.55469 29.2792 5.78673 29.7735 6.20907C33.8568 9.77907 39.6668 12.5557 44.3335 12.5557C44.9523 12.5557 45.5458 12.8016 45.9834 13.2392C46.421 13.6767 46.6668 14.2702 46.6668 14.8891V31.2224Z" stroke="url(#paint0_linear_10035_19069)" stroke-width="3.33333" stroke-linecap="round" stroke-linejoin="round"/>
<defs>
<linearGradient id="paint0_linear_10035_19069" x1="9.3335" y1="5.55469" x2="47.95" y2="7.21835" gradientUnits="userSpaceOnUse">
<stop stop-color="#2671B2"/>
<stop offset="1" stop-color="#0088FF"/>
</linearGradient>
</defs>
</svg>
