<svg width="56" height="57" viewBox="0 0 56 57" fill="none" xmlns="http://www.w3.org/2000/svg">
<path d="M23.3335 5.55859H32.6668M28.0002 33.5586V24.2253M9.3335 31.2253C9.90484 26.6892 12.121 22.5205 15.5617 19.5099C19.0025 16.4993 23.4284 14.8561 28.0002 14.8919C31.0196 14.8951 33.9932 15.6308 36.6659 17.0357C39.3385 18.4406 41.6305 20.473 43.3452 22.9583C45.0598 25.4437 46.146 28.3079 46.5105 31.3052C46.875 34.3026 46.5069 37.3436 45.4379 40.1675C44.3688 42.9914 42.6308 45.5138 40.3727 47.5183C38.1146 49.5228 35.404 50.9497 32.4733 51.6765C29.5426 52.4032 26.4794 52.4082 23.5464 51.691C20.6133 50.9738 17.8981 49.5558 15.6335 47.5586L9.3335 41.9586M21.0002 40.5586H9.3335V52.2253" stroke="url(#paint0_linear_10035_19130)" stroke-width="3.33333" stroke-linecap="round" stroke-linejoin="round"/>
<defs>
<linearGradient id="paint0_linear_10035_19130" x1="9.3335" y1="5.55859" x2="47.9295" y2="7.22077" gradientUnits="userSpaceOnUse">
<stop stop-color="#2671B2"/>
<stop offset="1" stop-color="#0088FF"/>
</linearGradient>
</defs>
</svg>
