<svg width="218" height="60" viewBox="0 0 218 60" fill="none" xmlns="http://www.w3.org/2000/svg">
<path d="M216 59.3871C217.105 59.3871 218 58.4917 218 57.3871V39.3871C218 38.2825 217.105 37.3871 216 37.3871C214.895 37.3871 214 38.2825 214 39.3871V55.3871H198C196.895 55.3871 196 56.2825 196 57.3871C196 58.4917 196.895 59.3871 198 59.3871H216ZM2.41309 57.3871L4.03986 58.5505C18.6718 38.0916 46.7605 13.5673 83.3639 6.42611C119.82 -0.686398 165.149 9.36417 214.586 58.8013L216 57.3871L217.414 55.9729C167.23 5.78842 120.608 -4.91551 82.598 2.50013C44.735 9.88707 15.841 35.1736 0.786312 56.2236L2.41309 57.3871Z" fill="white"/>
</svg>
