<svg width="137" height="107" viewBox="0 0 137 107" fill="none" xmlns="http://www.w3.org/2000/svg">
<path d="M122.26 106.083C123.125 106.77 124.383 106.626 125.07 105.761L136.265 91.6656C136.952 90.8006 136.808 89.5425 135.943 88.8555C135.078 88.1685 133.82 88.3128 133.133 89.1778L123.182 101.707L110.653 91.7556C109.788 91.0686 108.53 91.2129 107.843 92.0778C107.156 92.9428 107.3 94.2009 108.165 94.8878L122.26 106.083ZM0.349609 2.49707L0.27739 4.49577C11.3404 4.89551 39.5991 11.0327 66.1626 26.6465C92.6826 42.2346 117.197 67.0687 121.517 104.745L123.504 104.517L125.491 104.289C120.976 64.914 95.3297 39.1508 68.1896 23.198C41.093 7.27096 12.1922 0.923674 0.421829 0.498375L0.349609 2.49707Z" fill="#29B363"/>
</svg>
