<svg width="212" height="215" viewBox="0 0 212 215" fill="none" xmlns="http://www.w3.org/2000/svg">
<path d="M3.59326 1.34902H2.09326V1.58324L2.16466 1.8063L3.59326 1.34902ZM5.37098 8.56152L3.87236 8.49719L5.37098 8.56152ZM4.54136 14.4115L3.16762 13.8092L4.54136 14.4115ZM3.25881 17.3365L1.88507 16.7342L3.25881 17.3365ZM2.06127 21.724L0.587682 21.4438L2.06127 21.724ZM4.22461 29.0365L2.94967 29.8268L4.22461 29.0365ZM3.35881 33.424L2.07594 32.6467L3.35881 33.424ZM2.47265 34.8865L3.75552 35.6639L2.47265 34.8865ZM1.59808 37.8115L0.0981293 37.8234L1.59808 37.8115ZM1.80537 43.6615L0.315691 43.8372L1.80537 43.6615ZM2.7447 49.5115L1.30347 49.9273L2.7447 49.5115ZM3.58851 52.4365L5.02974 52.0208L3.58851 52.4365ZM3.37909 55.3615L2.00193 54.767L3.37909 55.3615ZM2.37457 64.1365L0.904474 64.4346L2.37457 64.1365ZM2.90113 68.524L1.40575 68.6417L2.90113 68.524ZM2.72752 72.9115L4.17344 73.3106L2.72752 72.9115ZM2.32383 74.374L0.877898 73.9749L2.32383 74.374ZM1.92014 75.8365L0.474208 75.4374L1.92014 75.8365ZM1.76254 78.7615L3.24175 78.5126L1.76254 78.7615ZM2.25474 81.6865L0.775533 81.9354L2.25474 81.6865ZM3.3082 84.6115L4.62139 83.8866L3.3082 84.6115ZM4.11556 86.074L2.80237 86.799L4.11556 86.074ZM4.92292 87.5365L6.23611 86.8116L4.92292 87.5365ZM5.71957 91.924L4.21958 91.9185L5.71957 91.924ZM4.73985 97.774L6.16375 98.2457L4.73985 97.774ZM4.25535 99.2365L2.83145 98.7648L4.25535 99.2365ZM4.10068 102.162L2.63743 102.492L4.10068 102.162ZM4.43052 103.624L5.89377 103.294L4.43052 103.624ZM4.35116 108.013L5.69029 108.689L4.35116 108.013ZM2.87309 110.942L1.53396 110.266L2.87309 110.942ZM2.61891 113.863L1.1957 114.337L2.61891 113.863ZM3.58859 116.776L5.0118 116.302L3.58859 116.776ZM3.6869 119.751L5.14056 120.121L3.6869 119.751ZM3.30037 121.27L4.75403 121.64L3.30037 121.27ZM2.91383 122.788L1.46017 122.419L2.91383 122.788ZM3.48175 125.641L2.26183 126.514L3.48175 125.641ZM5.39066 128.309L4.17073 129.182L5.39066 128.309ZM6.7566 131.028L8.19448 130.601L6.7566 131.028ZM7.57959 133.799L6.14171 134.226L7.57959 133.799ZM7.57889 136.831L9.03406 137.195L7.57889 136.831ZM6.75451 140.127L5.29934 139.763L6.75451 140.127ZM7.41336 142.955L8.5243 141.947L7.41336 142.955ZM9.55546 145.316L8.44453 146.324L9.55546 145.316ZM11.4157 147.732L12.6798 146.925L11.4157 147.732ZM12.9939 150.203L11.7298 151.011L12.9939 150.203ZM13.644 153.158L12.1488 153.037L13.644 153.158ZM13.3657 156.596L14.8608 156.717L13.3657 156.596ZM14.302 159.405L13.2342 160.459L14.302 159.405ZM15.3773 160.495L16.4451 159.441L15.3773 160.495ZM16.4527 161.585L17.5204 160.531L16.4527 161.585ZM18.8441 163.54L18.0201 164.793L18.8441 163.54ZM20.1602 164.405L20.9842 163.152L20.1602 164.405ZM21.4763 165.27L20.6523 166.524L21.4763 165.27ZM23.4869 167.423L22.1666 168.135L23.4869 167.423ZM24.8757 169.999L26.1959 169.286L24.8757 169.999ZM26.3916 172.503L27.6349 171.664L26.3916 172.503ZM28.0345 174.938L26.7912 175.777L28.0345 174.938ZM29.7988 177.285L30.9507 176.324L29.7988 177.285ZM30.7415 178.415L29.5896 179.376L30.7415 178.415ZM31.6842 179.546L30.5323 180.506L31.6842 179.546ZM34.0828 181.226L33.5528 182.629L34.0828 181.226ZM35.5385 181.775L35.0085 183.179L35.5385 181.775ZM36.9943 182.325L37.5243 180.922L36.9943 182.325ZM39.3411 184.086L38.133 184.975L39.3411 184.086ZM41.1231 186.507L42.3311 185.618L41.1231 186.507ZM43.3956 188.269L42.8398 189.662L43.3956 188.269ZM44.7771 188.82L45.3329 187.426L44.7771 188.82ZM46.1586 189.371L46.7144 187.977L46.1586 189.371ZM48.4331 191.274L47.1813 192.101L48.4331 191.274ZM49.3261 192.627L48.0743 193.453L49.3261 192.627ZM50.219 193.98L51.4708 193.153L50.219 193.98ZM52.487 195.895L51.9185 197.283L52.487 195.895ZM53.8621 196.459L54.4306 195.07L53.8621 196.459ZM55.2371 197.022L54.6685 198.41L55.2371 197.022ZM57.8454 198.467L58.7181 197.247L57.8454 198.467ZM59.0788 199.349L59.9515 198.129L59.0788 199.349ZM60.3121 200.232L59.4394 201.452L60.3121 200.232ZM63.0501 201.325L63.2583 199.839L63.0501 201.325ZM66.0594 201.746L65.8513 203.232L66.0594 201.746ZM68.9089 202.637L68.2323 203.976L68.9089 202.637ZM71.5986 203.996L70.922 205.335L71.5986 203.996ZM74.4542 204.722L74.4082 206.222L74.4542 204.722ZM77.4755 204.815L77.4295 206.314L77.4755 204.815ZM80.5307 204.418L80.9443 205.86L80.5307 204.418ZM83.6196 203.532L83.206 202.091L83.6196 203.532ZM86.5088 204.299L87.5122 203.184L86.5088 204.299ZM87.8536 205.51L86.8502 206.625L87.8536 205.51ZM89.1984 206.72L88.195 207.835L89.1984 206.72ZM92.0382 207.945L92.0531 206.445L92.0382 207.945ZM95.0282 207.975L95.0132 209.475L95.0282 207.975ZM97.9923 207.339L98.5995 208.711L97.9923 207.339ZM100.93 206.039L101.538 207.41L100.93 206.039ZM103.862 205.684L104.159 204.213L103.862 205.684ZM106.787 206.275L106.49 207.745L106.787 206.275ZM109.712 206.4L109.885 207.89L109.712 206.4ZM112.637 206.059L112.463 204.569L112.637 206.059ZM115.562 205.543L115.907 207.003L115.562 205.543ZM118.487 204.852L118.142 203.392L118.487 204.852ZM121.412 204.638L121.546 203.144L121.412 204.638ZM127.262 204.999L127.296 206.498L127.262 204.999ZM130.187 204.932L130.153 203.432L130.187 204.932ZM133.112 205.259L132.752 206.716L133.112 205.259ZM136.037 205.982L136.397 204.526L136.037 205.982ZM138.962 206.502L138.8 207.993L138.962 206.502ZM141.887 206.82L142.049 205.329L141.887 206.82ZM144.812 206.341L145.411 207.717L144.812 206.341ZM147.737 205.067L147.138 203.692L147.737 205.067ZM150.662 205.134L150.011 206.486L150.662 205.134ZM152.124 205.839L152.776 204.488L152.124 205.839ZM153.587 206.544L154.238 205.193L153.587 206.544ZM156.512 206.677L157.058 208.074L156.512 206.677ZM159.437 205.534L158.891 204.137L159.437 205.534ZM162.362 205.695L163.034 204.354L162.362 205.695ZM165.287 207.162L164.615 208.503L165.287 207.162ZM168.212 207.479L168.623 208.922L168.212 207.479ZM171.137 206.646L170.726 205.203L171.137 206.646ZM174.062 206.208L174.039 204.708L174.062 206.208ZM175.524 206.186L175.502 204.686L175.524 206.186ZM176.987 206.164L177.009 207.664L176.987 206.164ZM179.912 206.6L179.464 208.031L179.912 206.6ZM182.837 207.515L183.285 206.084L182.837 207.515ZM185.762 207.48L185.282 206.058L185.762 207.48ZM188.687 206.492L189.167 207.914L188.687 206.492ZM191.612 206.557L192.147 205.156L191.612 206.557ZM193.074 207.116L193.61 205.715L193.074 207.116ZM194.537 207.674L194.002 209.076L194.537 207.674ZM197.462 208.014L197.24 206.531L197.462 208.014ZM200.387 207.576L200.609 209.06L200.387 207.576ZM202.127 207.026L203.277 207.989L202.127 207.026ZM202.404 206.695L203.554 207.657L203.6 207.602L203.641 207.543L202.404 206.695ZM202.858 206.032V204.532H202.068L201.621 205.184L202.858 206.032ZM211.618 206.032L202.958 197.372L194.298 206.032L202.958 214.692L211.618 206.032ZM3.59326 1.24902H2.09326V1.34902H3.59326H5.09326V1.24902H3.59326ZM3.59326 1.34902L2.16466 1.8063L3.08491 4.6813L4.51351 4.22402L5.94211 3.76675L5.02186 0.891747L3.59326 1.34902ZM4.51351 4.22402L3.08491 4.6813C3.68934 6.56962 3.90219 7.80234 3.87236 8.49719L5.37098 8.56152L6.8696 8.62586C6.92348 7.3707 6.56468 5.71176 5.94211 3.76675L4.51351 4.22402ZM5.37098 8.56152L3.87236 8.49719L3.80958 9.95969L5.3082 10.024L6.80682 10.0884L6.8696 8.62586L5.37098 8.56152ZM5.3082 10.024L3.80958 9.95969L3.7468 11.4222L5.24541 11.4865L6.74403 11.5509L6.80682 10.0884L5.3082 10.024ZM5.24541 11.4865L3.7468 11.4222C3.7136 12.1955 3.52736 12.9887 3.16762 13.8092L4.54136 14.4115L5.9151 15.0139C6.41039 13.8843 6.69352 12.7276 6.74403 11.5509L5.24541 11.4865ZM4.54136 14.4115L3.16762 13.8092L2.52634 15.2717L3.90008 15.874L5.27383 16.4764L5.9151 15.0139L4.54136 14.4115ZM3.90008 15.874L2.52634 15.2717L1.88507 16.7342L3.25881 17.3365L4.63255 17.9389L5.27383 16.4764L3.90008 15.874ZM3.25881 17.3365L1.88507 16.7342C1.41553 17.805 1.07377 18.8878 0.865814 19.9813L2.3394 20.2615L3.81299 20.5418C3.97588 19.6853 4.24706 18.818 4.63255 17.9389L3.25881 17.3365ZM2.3394 20.2615L0.865814 19.9813L0.587682 21.4438L2.06127 21.724L3.53486 22.0043L3.81299 20.5418L2.3394 20.2615ZM2.06127 21.724L0.587682 21.4438L0.309551 22.9063L1.78314 23.1865L3.25673 23.4668L3.53486 22.0043L2.06127 21.724ZM1.78314 23.1865L0.309551 22.9063C0.0430555 24.3076 0.36726 25.6606 1.13661 26.9018L2.41154 26.1115L3.68648 25.3213C3.24711 24.6124 3.15238 24.0155 3.25673 23.4668L1.78314 23.1865ZM2.41154 26.1115L1.13661 26.9018L2.04314 28.3643L3.31808 27.574L4.59302 26.7838L3.68648 25.3213L2.41154 26.1115ZM3.31808 27.574L2.04314 28.3643L2.94967 29.8268L4.22461 29.0365L5.49955 28.2463L4.59302 26.7838L3.31808 27.574ZM4.22461 29.0365L2.94967 29.8268C3.13255 30.1218 3.18185 30.3431 3.18301 30.5095C3.18416 30.6752 3.13833 30.8934 2.96211 31.1842L4.24498 31.9615L5.52785 32.7389C5.9424 32.0547 6.18857 31.2978 6.18294 30.4886C6.17731 29.68 5.92103 28.9262 5.49955 28.2463L4.22461 29.0365ZM4.24498 31.9615L2.96211 31.1842L2.07594 32.6467L3.35881 33.424L4.64169 34.2014L5.52785 32.7389L4.24498 31.9615ZM3.35881 33.424L2.07594 32.6467L1.18977 34.1092L2.47265 34.8865L3.75552 35.6639L4.64169 34.2014L3.35881 33.424ZM2.47265 34.8865L1.18977 34.1092C0.479623 35.2812 0.0878358 36.5261 0.0981293 37.8234L1.59808 37.8115L3.09803 37.7996C3.09286 37.1469 3.28411 36.4418 3.75552 35.6639L2.47265 34.8865ZM1.59808 37.8115L0.0981293 37.8234L0.109733 39.2859L1.60969 39.274L3.10964 39.2621L3.09803 37.7996L1.59808 37.8115ZM1.60969 39.274L0.109733 39.2859L0.121337 40.7484L1.62129 40.7365L3.12124 40.7246L3.10964 39.2621L1.60969 39.274ZM1.62129 40.7365L0.121337 40.7484C0.129511 41.7785 0.194342 42.8082 0.315691 43.8372L1.80537 43.6615L3.29504 43.4858C3.18643 42.5648 3.12854 41.6445 3.12124 40.7246L1.62129 40.7365ZM1.80537 43.6615L0.315691 43.8372L0.488164 45.2997L1.97784 45.124L3.46752 44.9483L3.29504 43.4858L1.80537 43.6615ZM1.97784 45.124L0.488164 45.2997L0.660638 46.7622L2.15031 46.5865L3.63999 46.4108L3.46752 44.9483L1.97784 45.124ZM2.15031 46.5865L0.660638 46.7622C0.785514 47.8211 1.00029 48.8764 1.30347 49.9273L2.7447 49.5115L4.18592 49.0958C3.92656 48.1967 3.74508 47.302 3.63999 46.4108L2.15031 46.5865ZM2.7447 49.5115L1.30347 49.9273L1.72538 51.3898L3.1666 50.974L4.60783 50.5583L4.18592 49.0958L2.7447 49.5115ZM3.1666 50.974L1.72538 51.3898L2.14728 52.8523L3.58851 52.4365L5.02974 52.0208L4.60783 50.5583L3.1666 50.974ZM3.58851 52.4365L2.14728 52.8523C2.32746 53.4768 2.29198 54.0951 2.00193 54.767L3.37909 55.3615L4.75625 55.956C5.30797 54.6779 5.41211 53.3462 5.02974 52.0208L3.58851 52.4365ZM3.37909 55.3615L2.00193 54.767L1.3706 56.2295L2.74776 56.824L4.12492 57.4185L4.75625 55.956L3.37909 55.3615ZM2.74776 56.824L1.3706 56.2295L0.739265 57.692L2.11643 58.2865L3.49359 58.881L4.12492 57.4185L2.74776 56.824ZM2.11643 58.2865L0.739265 57.692C0.205691 58.9281 0.0488212 60.2139 0.311494 61.5096L1.78159 61.2115L3.25168 60.9135C3.11904 60.2592 3.18539 59.595 3.49359 58.881L2.11643 58.2865ZM1.78159 61.2115L0.311494 61.5096L0.607984 62.9721L2.07808 62.674L3.54817 62.376L3.25168 60.9135L1.78159 61.2115ZM2.07808 62.674L0.607984 62.9721L0.904474 64.4346L2.37457 64.1365L3.84466 63.8385L3.54817 62.376L2.07808 62.674ZM2.37457 64.1365L0.904474 64.4346C1.09027 65.351 1.21887 66.2658 1.29071 67.1792L2.7861 67.0615L4.28148 66.9439C4.19994 65.9073 4.05419 64.872 3.84466 63.8385L2.37457 64.1365ZM2.7861 67.0615L1.29071 67.1792L1.40575 68.6417L2.90113 68.524L4.39651 68.4064L4.28148 66.9439L2.7861 67.0615ZM2.90113 68.524L1.40575 68.6417L1.52079 70.1042L3.01617 69.9865L4.51155 69.8689L4.39651 68.4064L2.90113 68.524ZM3.01617 69.9865L1.52079 70.1042C1.58334 70.8994 1.50593 71.6996 1.28159 72.5124L2.72752 72.9115L4.17344 73.3106C4.48735 72.1734 4.60238 71.0237 4.51155 69.8689L3.01617 69.9865ZM2.72752 72.9115L1.28159 72.5124L0.877898 73.9749L2.32383 74.374L3.76975 74.7731L4.17344 73.3106L2.72752 72.9115ZM2.32383 74.374L0.877898 73.9749L0.474208 75.4374L1.92014 75.8365L3.36606 76.2356L3.76975 74.7731L2.32383 74.374ZM1.92014 75.8365L0.474208 75.4374C0.148223 76.6184 0.0821009 77.8145 0.283339 79.0104L1.76254 78.7615L3.24175 78.5126C3.11486 77.7585 3.15379 77.0047 3.36606 76.2356L1.92014 75.8365ZM1.76254 78.7615L0.283339 79.0104L0.529436 80.4729L2.00864 80.224L3.48784 79.9751L3.24175 78.5126L1.76254 78.7615ZM2.00864 80.224L0.529436 80.4729L0.775533 81.9354L2.25474 81.6865L3.73394 81.4376L3.48784 79.9751L2.00864 80.224ZM2.25474 81.6865L0.775533 81.9354C0.970994 83.097 1.3852 84.2318 1.99501 85.3365L3.3082 84.6115L4.62139 83.8866C4.15471 83.0412 3.86661 82.226 3.73394 81.4376L2.25474 81.6865ZM3.3082 84.6115L1.99501 85.3365L2.80237 86.799L4.11556 86.074L5.42875 85.3491L4.62139 83.8866L3.3082 84.6115ZM4.11556 86.074L2.80237 86.799L3.60974 88.2615L4.92292 87.5365L6.23611 86.8116L5.42875 85.3491L4.11556 86.074ZM4.92292 87.5365L3.60974 88.2615C4.04233 89.0451 4.22745 89.7709 4.22494 90.456L5.72493 90.4615L7.22492 90.467C7.22955 89.2022 6.88001 87.978 6.23611 86.8116L4.92292 87.5365ZM5.72493 90.4615L4.22494 90.456L4.21958 91.9185L5.71957 91.924L7.21956 91.9295L7.22492 90.467L5.72493 90.4615ZM5.71957 91.924L4.21958 91.9185L4.21422 93.381L5.71421 93.3865L7.2142 93.392L7.21956 91.9295L5.71957 91.924ZM5.71421 93.3865L4.21422 93.381C4.21126 94.1893 4.0763 95.0071 3.80045 95.8398L5.22435 96.3115L6.64825 96.7832C7.0184 95.6659 7.21002 94.5338 7.2142 93.392L5.71421 93.3865ZM5.22435 96.3115L3.80045 95.8398L3.31595 97.3023L4.73985 97.774L6.16375 98.2457L6.64825 96.7832L5.22435 96.3115ZM4.73985 97.774L3.31595 97.3023L2.83145 98.7648L4.25535 99.2365L5.67925 99.7082L6.16375 98.2457L4.73985 97.774ZM4.25535 99.2365L2.83145 98.7648C2.42523 99.991 2.35587 101.243 2.63743 102.492L4.10068 102.162L5.56393 101.832C5.40571 101.13 5.43946 100.432 5.67925 99.7082L4.25535 99.2365ZM4.10068 102.162L2.63743 102.492L2.96727 103.954L4.43052 103.624L5.89377 103.294L5.56393 101.832L4.10068 102.162ZM4.43052 103.624L2.96727 103.954L3.2971 105.417L4.76035 105.087L6.2236 104.757L5.89377 103.294L4.43052 103.624ZM4.76035 105.087L3.2971 105.417C3.43305 106.019 3.36369 106.641 3.01202 107.338L4.35116 108.013L5.69029 108.689C6.324 107.434 6.52743 106.104 6.2236 104.757L4.76035 105.087ZM4.35116 108.013L3.01202 107.338L2.27299 108.802L3.61212 109.478L4.95126 110.154L5.69029 108.689L4.35116 108.013ZM3.61212 109.478L2.27299 108.802L1.53396 110.266L2.87309 110.942L4.21223 111.618L4.95126 110.154L3.61212 109.478ZM2.87309 110.942L1.53396 110.266C0.874952 111.572 0.736973 112.959 1.1957 114.337L2.61891 113.863L4.04211 113.389C3.85438 112.825 3.88586 112.265 4.21223 111.618L2.87309 110.942ZM2.61891 113.863L1.1957 114.337L1.68054 115.793L3.10375 115.319L4.52695 114.846L4.04211 113.389L2.61891 113.863ZM3.10375 115.319L1.68054 115.793L2.16538 117.25L3.58859 116.776L5.0118 116.302L4.52695 114.846L3.10375 115.319ZM3.58859 116.776L2.16538 117.25C2.39589 117.942 2.42166 118.641 2.23324 119.381L3.6869 119.751L5.14056 120.121C5.46752 118.836 5.42775 117.551 5.0118 116.302L3.58859 116.776ZM3.6869 119.751L2.23324 119.381L1.84671 120.9L3.30037 121.27L4.75403 121.64L5.14056 120.121L3.6869 119.751ZM3.30037 121.27L1.84671 120.9L1.46017 122.419L2.91383 122.788L4.36749 123.158L4.75403 121.64L3.30037 121.27ZM2.91383 122.788L1.46017 122.419C1.08774 123.882 1.38203 125.284 2.26183 126.514L3.48175 125.641L4.70167 124.769C4.30887 124.219 4.22455 123.72 4.36749 123.158L2.91383 122.788ZM3.48175 125.641L2.26183 126.514L3.21628 127.848L4.4362 126.975L5.65613 126.103L4.70167 124.769L3.48175 125.641ZM4.4362 126.975L3.21628 127.848L4.17073 129.182L5.39066 128.309L6.61058 127.437L5.65613 126.103L4.4362 126.975ZM5.39066 128.309L4.17073 129.182C4.72308 129.954 5.09775 130.712 5.31872 131.456L6.7566 131.028L8.19448 130.601C7.8668 129.498 7.33083 128.443 6.61058 127.437L5.39066 128.309ZM6.7566 131.028L5.31872 131.456L5.73022 132.841L7.1681 132.413L8.60598 131.986L8.19448 130.601L6.7566 131.028ZM7.1681 132.413L5.73022 132.841L6.14171 134.226L7.57959 133.799L9.01747 133.371L8.60598 131.986L7.1681 132.413ZM7.57959 133.799L6.14171 134.226C6.32705 134.85 6.34491 135.583 6.12373 136.467L7.57889 136.831L9.03406 137.195C9.36247 135.882 9.38079 134.594 9.01747 133.371L7.57959 133.799ZM7.57889 136.831L6.12373 136.467L5.71154 138.115L7.1667 138.479L8.62186 138.843L9.03406 137.195L7.57889 136.831ZM7.1667 138.479L5.71154 138.115L5.29934 139.763L6.75451 140.127L8.20967 140.491L8.62186 138.843L7.1667 138.479ZM6.75451 140.127L5.29934 139.763C4.91244 141.31 5.22627 142.777 6.30243 143.963L7.41336 142.955L8.5243 141.947C8.17239 141.559 8.04698 141.141 8.20967 140.491L6.75451 140.127ZM7.41336 142.955L6.30243 143.963L7.37348 145.144L8.48441 144.136L9.59535 143.128L8.5243 141.947L7.41336 142.955ZM8.48441 144.136L7.37348 145.144L8.44453 146.324L9.55546 145.316L10.6664 144.308L9.59535 143.128L8.48441 144.136ZM9.55546 145.316L8.44453 146.324C9.10683 147.054 9.67452 147.793 10.1515 148.54L11.4157 147.732L12.6798 146.925C12.1046 146.024 11.4322 145.153 10.6664 144.308L9.55546 145.316ZM11.4157 147.732L10.1515 148.54L10.9407 149.775L12.2048 148.968L13.4689 148.16L12.6798 146.925L11.4157 147.732ZM12.2048 148.968L10.9407 149.775L11.7298 151.011L12.9939 150.203L14.258 149.396L13.4689 148.16L12.2048 148.968ZM12.9939 150.203L11.7298 151.011C12.0499 151.512 12.22 152.157 12.1488 153.037L13.644 153.158L15.1391 153.279C15.2534 151.866 14.9902 150.542 14.258 149.396L12.9939 150.203ZM13.644 153.158L12.1488 153.037L12.0097 154.756L13.5048 154.877L15 154.998L15.1391 153.279L13.644 153.158ZM13.5048 154.877L12.0097 154.756L11.8706 156.475L13.3657 156.596L14.8608 156.717L15 154.998L13.5048 154.877ZM13.3657 156.596L11.8706 156.475C11.7476 157.995 12.1699 159.38 13.2342 160.459L14.302 159.405L15.3697 158.352C15.0002 157.977 14.7983 157.49 14.8608 156.717L13.3657 156.596ZM14.302 159.405L13.2342 160.459L14.3096 161.549L15.3773 160.495L16.4451 159.441L15.3697 158.352L14.302 159.405ZM15.3773 160.495L14.3096 161.549L15.3849 162.638L16.4527 161.585L17.5204 160.531L16.4451 159.441L15.3773 160.495ZM16.4527 161.585L15.3849 162.638C16.1779 163.442 17.0572 164.16 18.0201 164.793L18.8441 163.54L19.6681 162.287C18.8762 161.766 18.1612 161.181 17.5204 160.531L16.4527 161.585ZM18.8441 163.54L18.0201 164.793L19.3362 165.659L20.1602 164.405L20.9842 163.152L19.6681 162.287L18.8441 163.54ZM20.1602 164.405L19.3362 165.659L20.6523 166.524L21.4763 165.27L22.3003 164.017L20.9842 163.152L20.1602 164.405ZM21.4763 165.27L20.6523 166.524C21.3384 166.975 21.8306 167.512 22.1666 168.135L23.4869 167.423L24.8071 166.711C24.2172 165.617 23.3691 164.72 22.3003 164.017L21.4763 165.27ZM23.4869 167.423L22.1666 168.135L22.861 169.423L24.1813 168.711L25.5015 167.999L24.8071 166.711L23.4869 167.423ZM24.1813 168.711L22.861 169.423L23.5554 170.711L24.8757 169.999L26.1959 169.286L25.5015 167.999L24.1813 168.711ZM24.8757 169.999L23.5554 170.711C24.042 171.613 24.573 172.49 25.1482 173.342L26.3916 172.503L27.6349 171.664C27.1148 170.894 26.6352 170.101 26.1959 169.286L24.8757 169.999ZM26.3916 172.503L25.1482 173.342L25.9697 174.56L27.213 173.72L28.4564 172.881L27.6349 171.664L26.3916 172.503ZM27.213 173.72L25.9697 174.56L26.7912 175.777L28.0345 174.938L29.2778 174.098L28.4564 172.881L27.213 173.72ZM28.0345 174.938L26.7912 175.777C27.3673 176.63 27.9859 177.453 28.6468 178.246L29.7988 177.285L30.9507 176.324C30.3546 175.61 29.797 174.868 29.2778 174.098L28.0345 174.938ZM29.7988 177.285L28.6468 178.246L29.5896 179.376L30.7415 178.415L31.8934 177.454L30.9507 176.324L29.7988 177.285ZM30.7415 178.415L29.5896 179.376L30.5323 180.506L31.6842 179.546L32.8362 178.585L31.8934 177.454L30.7415 178.415ZM31.6842 179.546L30.5323 180.506C31.3361 181.47 32.3546 182.176 33.5528 182.629L34.0828 181.226L34.6127 179.822C33.8699 179.542 33.2894 179.128 32.8362 178.585L31.6842 179.546ZM34.0828 181.226L33.5528 182.629L35.0085 183.179L35.5385 181.775L36.0685 180.372L34.6127 179.822L34.0828 181.226ZM35.5385 181.775L35.0085 183.179L36.4643 183.729L36.9943 182.325L37.5243 180.922L36.0685 180.372L35.5385 181.775ZM36.9943 182.325L36.4643 183.729C37.174 183.997 37.7169 184.41 38.133 184.975L39.3411 184.086L40.5491 183.197C39.7772 182.148 38.7556 181.387 37.5243 180.922L36.9943 182.325ZM39.3411 184.086L38.133 184.975L39.024 186.185L40.2321 185.296L41.4401 184.407L40.5491 183.197L39.3411 184.086ZM40.2321 185.296L39.024 186.185L39.915 187.396L41.1231 186.507L42.3311 185.618L41.4401 184.407L40.2321 185.296ZM41.1231 186.507L39.915 187.396C40.6733 188.426 41.6557 189.189 42.8398 189.662L43.3956 188.269L43.9514 186.875C43.2935 186.613 42.7609 186.202 42.3311 185.618L41.1231 186.507ZM43.3956 188.269L42.8398 189.662L44.2213 190.213L44.7771 188.82L45.3329 187.426L43.9514 186.875L43.3956 188.269ZM44.7771 188.82L44.2213 190.213L45.6028 190.764L46.1586 189.371L46.7144 187.977L45.3329 187.426L44.7771 188.82ZM46.1586 189.371L45.6028 190.764C46.2138 191.008 46.7388 191.431 47.1813 192.101L48.4331 191.274L49.6849 190.448C48.9368 189.315 47.9455 188.469 46.7144 187.977L46.1586 189.371ZM48.4331 191.274L47.1813 192.101L48.0743 193.453L49.3261 192.627L50.5779 191.801L49.6849 190.448L48.4331 191.274ZM49.3261 192.627L48.0743 193.453L48.9672 194.806L50.219 193.98L51.4708 193.153L50.5779 191.801L49.3261 192.627ZM50.219 193.98L48.9672 194.806C49.7129 195.935 50.6974 196.783 51.9185 197.283L52.487 195.895L53.0556 194.507C52.4433 194.256 51.9158 193.827 51.4708 193.153L50.219 193.98ZM52.487 195.895L51.9185 197.283L53.2935 197.847L53.8621 196.459L54.4306 195.07L53.0556 194.507L52.487 195.895ZM53.8621 196.459L53.2935 197.847L54.6685 198.41L55.2371 197.022L55.8056 195.634L54.4306 195.07L53.8621 196.459ZM55.2371 197.022L54.6685 198.41C55.4755 198.74 56.2431 199.165 56.9728 199.687L57.8454 198.467L58.7181 197.247C57.8033 196.593 56.8321 196.054 55.8056 195.634L55.2371 197.022ZM57.8454 198.467L56.9728 199.687L58.2061 200.569L59.0788 199.349L59.9515 198.129L58.7181 197.247L57.8454 198.467ZM59.0788 199.349L58.2061 200.569L59.4394 201.452L60.3121 200.232L61.1848 199.012L59.9515 198.129L59.0788 199.349ZM60.3121 200.232L59.4394 201.452C60.4589 202.181 61.5997 202.636 62.842 202.81L63.0501 201.325L63.2583 199.839C62.4944 199.732 61.8098 199.459 61.1848 199.012L60.3121 200.232ZM63.0501 201.325L62.842 202.81L64.3466 203.021L64.5548 201.536L64.7629 200.05L63.2583 199.839L63.0501 201.325ZM64.5548 201.536L64.3466 203.021L65.8513 203.232L66.0594 201.746L66.2676 200.261L64.7629 200.05L64.5548 201.536ZM66.0594 201.746L65.8513 203.232C66.6926 203.35 67.484 203.597 68.2323 203.976L68.9089 202.637L69.5855 201.298C68.5407 200.77 67.4324 200.424 66.2676 200.261L66.0594 201.746ZM68.9089 202.637L68.2323 203.976L69.5772 204.655L70.2538 203.317L70.9304 201.978L69.5855 201.298L68.9089 202.637ZM70.2538 203.317L69.5772 204.655L70.922 205.335L71.5986 203.996L72.2752 202.658L70.9304 201.978L70.2538 203.317ZM71.5986 203.996L70.922 205.335C72.0151 205.887 73.1823 206.184 74.4082 206.222L74.4542 204.722L74.5002 203.223C73.7118 203.199 72.9753 203.011 72.2752 202.658L71.5986 203.996ZM74.4542 204.722L74.4082 206.222L75.9188 206.268L75.9649 204.769L76.0109 203.269L74.5002 203.223L74.4542 204.722ZM75.9649 204.769L75.9188 206.268L77.4295 206.314L77.4755 204.815L77.5215 203.316L76.0109 203.269L75.9649 204.769ZM77.4755 204.815L77.4295 206.314C78.6014 206.35 79.7748 206.196 80.9443 205.86L80.5307 204.418L80.1171 202.977C79.2273 203.232 78.3639 203.342 77.5215 203.316L77.4755 204.815ZM80.5307 204.418L80.9443 205.86L82.4887 205.417L82.0751 203.975L81.6616 202.534L80.1171 202.977L80.5307 204.418ZM82.0751 203.975L82.4887 205.417L84.0332 204.974L83.6196 203.532L83.206 202.091L81.6616 202.534L82.0751 203.975ZM83.6196 203.532L84.0332 204.974C84.4957 204.842 84.9359 204.902 85.5054 205.415L86.5088 204.299L87.5122 203.184C86.2887 202.083 84.8027 201.633 83.206 202.091L83.6196 203.532ZM86.5088 204.299L85.5054 205.415L86.8502 206.625L87.8536 205.51L88.857 204.395L87.5122 203.184L86.5088 204.299ZM87.8536 205.51L86.8502 206.625L88.195 207.835L89.1984 206.72L90.2017 205.605L88.857 204.395L87.8536 205.51ZM89.1984 206.72L88.195 207.835C89.3033 208.832 90.5881 209.43 92.0232 209.445L92.0382 207.945L92.0531 206.445C91.4949 206.439 90.8864 206.221 90.2017 205.605L89.1984 206.72ZM92.0382 207.945L92.0232 209.445L93.5182 209.46L93.5332 207.96L93.5482 206.46L92.0531 206.445L92.0382 207.945ZM93.5332 207.96L93.5182 209.46L95.0132 209.475L95.0282 207.975L95.0432 206.475L93.5482 206.46L93.5332 207.96ZM95.0282 207.975L95.0132 209.475C96.2397 209.487 97.4391 209.225 98.5995 208.711L97.9923 207.339L97.3851 205.968C96.5867 206.321 95.81 206.482 95.0432 206.475L95.0282 207.975ZM97.9923 207.339L98.5995 208.711L100.069 208.061L99.4613 206.689L98.8541 205.317L97.3851 205.968L97.9923 207.339ZM99.4613 206.689L100.069 208.061L101.538 207.41L100.93 206.039L100.323 204.667L98.8541 205.317L99.4613 206.689ZM100.93 206.039L101.538 207.41C102.256 207.092 102.918 207.023 103.565 207.154L103.862 205.684L104.159 204.213C102.856 203.95 101.563 204.118 100.323 204.667L100.93 206.039ZM103.862 205.684L103.565 207.154L105.027 207.449L105.324 205.979L105.621 204.509L104.159 204.213L103.862 205.684ZM105.324 205.979L105.027 207.449L106.49 207.745L106.787 206.275L107.084 204.804L105.621 204.509L105.324 205.979ZM106.787 206.275L106.49 207.745C107.618 207.973 108.751 208.022 109.885 207.89L109.712 206.4L109.538 204.91C108.722 205.005 107.906 204.97 107.084 204.804L106.787 206.275ZM109.712 206.4L109.885 207.89L111.348 207.719L111.174 206.229L111.001 204.739L109.538 204.91L109.712 206.4ZM111.174 206.229L111.348 207.719L112.81 207.549L112.637 206.059L112.463 204.569L111.001 204.739L111.174 206.229ZM112.637 206.059L112.81 207.549C113.844 207.429 114.876 207.246 115.907 207.003L115.562 205.543L115.217 204.083C114.297 204.301 113.38 204.462 112.463 204.569L112.637 206.059ZM115.562 205.543L115.907 207.003L117.369 206.658L117.024 205.198L116.68 203.738L115.217 204.083L115.562 205.543ZM117.024 205.198L117.369 206.658L118.832 206.312L118.487 204.852L118.142 203.392L116.68 203.738L117.024 205.198ZM118.487 204.852L118.832 206.312C119.654 206.118 120.467 206.059 121.278 206.132L121.412 204.638L121.546 203.144C120.407 203.042 119.27 203.126 118.142 203.392L118.487 204.852ZM121.412 204.638L121.278 206.132L122.74 206.263L122.874 204.769L123.009 203.275L121.546 203.144L121.412 204.638ZM122.874 204.769L122.74 206.263L124.203 206.395L124.337 204.901L124.471 203.407L123.009 203.275L122.874 204.769ZM124.337 204.901L124.203 206.395C125.234 206.487 126.265 206.522 127.296 206.498L127.262 204.999L127.228 203.499C126.309 203.52 125.39 203.489 124.471 203.407L124.337 204.901ZM127.262 204.999L127.296 206.498L128.759 206.465L128.724 204.965L128.69 203.466L127.228 203.499L127.262 204.999ZM128.724 204.965L128.759 206.465L130.221 206.431L130.187 204.932L130.153 203.432L128.69 203.466L128.724 204.965ZM130.187 204.932L130.221 206.431C131.06 206.412 131.902 206.506 132.752 206.716L133.112 205.259L133.472 203.803C132.372 203.531 131.264 203.407 130.153 203.432L130.187 204.932ZM133.112 205.259L132.752 206.716L134.215 207.077L134.574 205.621L134.934 204.164L133.472 203.803L133.112 205.259ZM134.574 205.621L134.215 207.077L135.677 207.438L136.037 205.982L136.397 204.526L134.934 204.164L134.574 205.621ZM136.037 205.982L135.677 207.438C136.716 207.695 137.757 207.88 138.8 207.993L138.962 206.502L139.124 205.011C138.217 204.912 137.308 204.751 136.397 204.526L136.037 205.982ZM138.962 206.502L138.8 207.993L140.262 208.152L140.424 206.661L140.586 205.17L139.124 205.011L138.962 206.502ZM140.424 206.661L140.262 208.152L141.725 208.311L141.887 206.82L142.049 205.329L140.586 205.17L140.424 206.661ZM141.887 206.82L141.725 208.311C142.981 208.448 144.218 208.237 145.411 207.717L144.812 206.341L144.213 204.966C143.456 205.296 142.743 205.404 142.049 205.329L141.887 206.82ZM144.812 206.341L145.411 207.717L146.874 207.079L146.274 205.704L145.675 204.329L144.213 204.966L144.812 206.341ZM146.274 205.704L146.874 207.079L148.336 206.442L147.737 205.067L147.138 203.692L145.675 204.329L146.274 205.704ZM147.737 205.067L148.336 206.442C148.903 206.195 149.421 206.201 150.011 206.486L150.662 205.134L151.313 203.783C149.953 203.127 148.521 203.089 147.138 203.692L147.737 205.067ZM150.662 205.134L150.011 206.486L151.473 207.191L152.124 205.839L152.776 204.488L151.313 203.783L150.662 205.134ZM152.124 205.839L151.473 207.191L152.936 207.896L153.587 206.544L154.238 205.193L152.776 204.488L152.124 205.839ZM153.587 206.544L152.936 207.896C154.272 208.54 155.68 208.613 157.058 208.074L156.512 206.677L155.966 205.28C155.393 205.504 154.852 205.489 154.238 205.193L153.587 206.544ZM156.512 206.677L157.058 208.074L158.521 207.503L157.974 206.106L157.428 204.709L155.966 205.28L156.512 206.677ZM157.974 206.106L158.521 207.503L159.983 206.931L159.437 205.534L158.891 204.137L157.428 204.709L157.974 206.106ZM159.437 205.534L159.983 206.931C160.544 206.711 161.076 206.729 161.69 207.036L162.362 205.695L163.034 204.354C161.697 203.684 160.28 203.593 158.891 204.137L159.437 205.534ZM162.362 205.695L161.69 207.036L163.152 207.769L163.824 206.429L164.497 205.088L163.034 204.354L162.362 205.695ZM163.824 206.429L163.152 207.769L164.615 208.503L165.287 207.162L165.959 205.821L164.497 205.088L163.824 206.429ZM165.287 207.162L164.615 208.503C165.897 209.146 167.258 209.31 168.623 208.922L168.212 207.479L167.801 206.036C167.216 206.203 166.627 206.156 165.959 205.821L165.287 207.162ZM168.212 207.479L168.623 208.922L170.085 208.505L169.674 207.063L169.264 205.62L167.801 206.036L168.212 207.479ZM169.674 207.063L170.085 208.505L171.548 208.089L171.137 206.646L170.726 205.203L169.264 205.62L169.674 207.063ZM171.137 206.646L171.548 208.089C172.401 207.846 173.246 207.72 174.084 207.708L174.062 206.208L174.039 204.708C172.928 204.725 171.822 204.891 170.726 205.203L171.137 206.646ZM174.062 206.208L174.084 207.708L175.547 207.686L175.524 206.186L175.502 204.686L174.039 204.708L174.062 206.208ZM175.524 206.186L175.547 207.686L177.009 207.664L176.987 206.164L176.964 204.664L175.502 204.686L175.524 206.186ZM176.987 206.164L177.009 207.664C177.817 207.652 178.634 207.771 179.464 208.031L179.912 206.6L180.36 205.168C179.24 204.818 178.106 204.647 176.964 204.664L176.987 206.164ZM179.912 206.6L179.464 208.031L180.926 208.489L181.374 207.058L181.823 205.626L180.36 205.168L179.912 206.6ZM181.374 207.058L180.926 208.489L182.389 208.947L182.837 207.515L183.285 206.084L181.823 205.626L181.374 207.058ZM182.837 207.515L182.389 208.947C183.669 209.348 184.969 209.331 186.242 208.901L185.762 207.48L185.282 206.058C184.605 206.287 183.955 206.294 183.285 206.084L182.837 207.515ZM185.762 207.48L186.242 208.901L187.704 208.407L187.224 206.986L186.745 205.565L185.282 206.058L185.762 207.48ZM187.224 206.986L187.704 208.407L189.167 207.914L188.687 206.492L188.207 205.071L186.745 205.565L187.224 206.986ZM188.687 206.492L189.167 207.914C189.806 207.698 190.422 207.709 191.077 207.959L191.612 206.557L192.147 205.156C190.851 204.661 189.518 204.629 188.207 205.071L188.687 206.492ZM191.612 206.557L191.077 207.959L192.539 208.517L193.074 207.116L193.61 205.715L192.147 205.156L191.612 206.557ZM193.074 207.116L192.539 208.517L194.002 209.076L194.537 207.674L195.072 206.273L193.61 205.715L193.074 207.116ZM194.537 207.674L194.002 209.076C195.203 209.535 196.439 209.684 197.684 209.497L197.462 208.014L197.24 206.531C196.535 206.636 195.821 206.559 195.072 206.273L194.537 207.674ZM197.462 208.014L197.684 209.497L199.146 209.279L198.924 207.795L198.702 206.312L197.24 206.531L197.462 208.014ZM198.924 207.795L199.146 209.279L200.609 209.06L200.387 207.576L200.165 206.093L198.702 206.312L198.924 207.795ZM200.387 207.576L200.609 209.06C201.133 208.981 201.609 208.885 202.005 208.759C202.325 208.658 202.887 208.454 203.277 207.989L202.127 207.026L200.976 206.063C201.043 205.984 201.104 205.933 201.142 205.905C201.18 205.876 201.207 205.862 201.213 205.859C201.222 205.854 201.192 205.87 201.101 205.899C200.918 205.957 200.616 206.025 200.165 206.093L200.387 207.576ZM202.127 207.026L203.277 207.989L203.554 207.657L202.404 206.695L201.253 205.732L200.976 206.063L202.127 207.026ZM202.404 206.695L203.641 207.543L204.095 206.88L202.858 206.032L201.621 205.184L201.167 205.846L202.404 206.695ZM202.858 206.032V207.532H202.958V206.032V204.532H202.858V206.032Z" fill="#2671B2"/>
</svg>
