<svg width="32" height="33" viewBox="0 0 32 33" fill="none" xmlns="http://www.w3.org/2000/svg">
<path fill-rule="evenodd" clip-rule="evenodd" d="M8.1932 2.71387H18.9027L27.9655 12.1737L27.9651 26.5445C27.9651 28.8453 26.1082 30.7139 23.8074 30.7139H8.19281C5.90376 30.7139 4.03516 28.8453 4.03516 26.5445L4.03555 6.87152C4.03551 4.58247 5.90415 2.71387 8.1932 2.71387Z" fill="#EA3943"/>
<path opacity="0.302" fill-rule="evenodd" clip-rule="evenodd" d="M18.8906 2.71387V12.092H27.9651L18.8906 2.71387Z" fill="white"/>
<path d="M19.6318 25.1141V19.2959H23.6034V20.4379H21.0381V21.6311H23.3506V22.776H21.0381V25.1141H19.6318Z" fill="white"/>
<path d="M15.9387 25.1141H13.7881V19.2959H15.9358C16.5286 19.2959 17.039 19.4124 17.4671 19.6453C17.897 19.8764 18.2284 20.2097 18.4614 20.6453C18.6943 21.079 18.8108 21.598 18.8108 22.2021C18.8108 22.8082 18.6943 23.329 18.4614 23.7646C18.2303 24.2003 17.8998 24.5345 17.4699 24.7675C17.04 24.9985 16.5296 25.1141 15.9387 25.1141ZM15.1943 23.9152H15.8847C16.2104 23.9152 16.486 23.8603 16.7114 23.7504C16.9387 23.6387 17.1101 23.4578 17.2256 23.2078C17.343 22.9559 17.4017 22.6207 17.4017 22.2021C17.4017 21.7836 17.343 21.4503 17.2256 21.2021C17.1082 20.9521 16.9349 20.7722 16.7057 20.6624C16.4784 20.5506 16.1981 20.4948 15.8648 20.4948H15.1943V23.9152Z" fill="white"/>
<path d="M8.56934 25.1141V19.2959H10.9727C11.4084 19.2959 11.7843 19.3811 12.1006 19.5516C12.4188 19.7201 12.664 19.9559 12.8364 20.259C13.0087 20.5601 13.0949 20.9105 13.0949 21.3101C13.0949 21.7116 13.0068 22.0629 12.8307 22.3641C12.6565 22.6633 12.4074 22.8953 12.0835 23.0601C11.7597 23.2249 11.3752 23.3073 10.9301 23.3073H9.44718V22.1993H10.6688C10.8809 22.1993 11.058 22.1624 11.2 22.0885C11.344 22.0146 11.4529 21.9114 11.5267 21.7789C11.6006 21.6444 11.6375 21.4881 11.6375 21.3101C11.6375 21.1302 11.6006 20.9749 11.5267 20.8442C11.4529 20.7116 11.344 20.6093 11.2 20.5374C11.0561 20.4654 10.879 20.4294 10.6688 20.4294H9.97559V25.1141H8.56934Z" fill="white"/>
</svg>
