<svg width="29" height="26" viewBox="0 0 29 26" fill="none" xmlns="http://www.w3.org/2000/svg">
<path fill-rule="evenodd" clip-rule="evenodd" d="M12.8254 0.766873C9.90511 1.12942 7.23264 2.32555 5.04704 4.24826C2.31166 6.65469 0.602763 9.86164 0.124168 13.4864C-0.183982 15.8206 0.0832596 18.2411 0.905414 20.5628C1.17381 21.3207 1.85894 22.6956 2.33915 23.4401C2.72938 24.045 3.32426 24.8286 3.83083 25.4049L4.06261 25.6685L4.10001 25.2185C4.17324 24.3377 4.3761 23.6286 4.73396 23.0026C4.93751 22.6465 5.61221 21.9753 5.98987 21.7531C6.2689 21.5888 6.30588 21.5474 6.31976 21.383C6.33626 21.1869 6.33129 21.1787 5.72577 20.4031C5.36839 19.9452 5.00744 19.2133 4.85946 18.6463C4.72061 18.114 4.6677 16.9953 4.75339 16.4016C4.83526 15.8338 5.03232 15.0438 5.20339 14.5972C5.45529 13.9398 6.00056 12.8568 6.35313 12.3138L6.697 11.7841V10.6501C6.697 10.0264 6.71235 9.51608 6.7311 9.51608C6.74985 9.51608 8.15819 9.9851 9.8608 10.5583C11.5634 11.1316 13.1096 11.6342 13.2969 11.6754C13.741 11.773 14.7535 11.7721 15.1563 11.6738C15.3292 11.6316 16.8436 11.1317 18.5218 10.5628L21.5729 9.52854V10.6393V11.7501L21.9084 12.2169C22.7488 13.3861 23.3534 14.6602 23.678 15.9465C23.8361 16.5726 23.8486 16.685 23.8457 17.4484C23.8432 18.1192 23.8214 18.3533 23.7297 18.6995C23.5667 19.314 23.2076 20.0092 22.7534 20.5894C22.3974 21.0442 22.3589 21.1159 22.3711 21.3014C22.3841 21.4975 22.4035 21.5185 22.7649 21.7273C23.9759 22.4271 24.6216 23.5792 24.7453 25.261C24.7653 25.5318 24.793 25.7534 24.8071 25.7534C24.8211 25.7534 24.9683 25.6037 25.1341 25.4207C28.2218 22.0131 29.543 17.5053 28.7957 12.9277C28.3309 10.0808 26.985 7.35758 25.0114 5.27074C22.8163 2.94981 20.1634 1.48781 17.0944 0.907738C16.415 0.77933 16.2378 0.768204 14.6849 0.756598C13.763 0.74973 12.9263 0.754362 12.8254 0.766873ZM14.7589 4.19364C15.1199 4.24129 16.5884 4.71952 23.0393 6.89032C24.7667 7.47161 24.9503 7.58256 24.6519 7.86514C24.5771 7.93595 22.9023 8.52374 19.9508 9.51507C15.2788 11.0842 15.1308 11.1304 14.5775 11.1923C13.904 11.2675 13.6276 11.189 8.85322 9.56581C6.36261 8.71907 4.2516 7.98296 4.16213 7.92999C3.96225 7.81169 3.92501 7.62797 4.07424 7.49642C4.19906 7.38633 4.36725 7.32697 9.57747 5.553C13.8152 4.11011 13.9191 4.08286 14.7589 4.19364ZM8.21602 13.5323C8.21602 13.6038 8.24189 13.6785 8.27353 13.6984C8.30517 13.7183 8.39945 13.8442 8.48305 13.9782C8.71829 14.3552 8.69838 14.6445 8.41244 15.0024C7.96465 15.5628 7.88974 15.6709 7.73198 15.9844C7.49192 16.4614 7.37689 16.8879 7.34436 17.4218C7.24406 19.0671 8.28872 20.4393 9.86525 20.733C10.9208 20.9296 12.0594 20.5558 12.875 19.7446L13.1811 19.4403L13.2151 19.7353C13.2871 20.3589 13.7245 21.2625 14.2601 21.8937L14.4407 22.1067L14.6414 21.8722C15.1517 21.2759 15.5975 20.4386 15.6787 19.9239C15.7585 19.4188 15.7231 19.428 16.1274 19.8084C17.1957 20.8137 18.7048 21.0667 19.9491 20.4491C20.2398 20.3048 20.4457 20.1477 20.7411 19.8448C21.3617 19.2086 21.6253 18.5391 21.6253 17.5994C21.6253 16.7261 21.3327 15.9448 20.7345 15.2208C20.5681 15.0193 20.4058 14.8049 20.3739 14.7442C20.2471 14.5035 20.3436 14.1427 20.6345 13.7693C20.9069 13.4199 20.8462 13.3806 20.0918 13.4185C18.8829 13.4791 17.7028 13.7663 16.7801 14.2244C16.0333 14.5951 15.5997 15.0107 15.2872 15.6551C14.9043 16.4446 14.8336 17.1675 15.0529 18.0483C15.0883 18.1901 15.0843 18.1936 14.9493 18.1415C14.7667 18.0709 14.1046 18.0715 13.9743 18.1424C13.8531 18.2083 13.8517 18.1893 13.9522 17.8525C14.0524 17.5168 14.0511 16.7735 13.9497 16.3359C13.5852 14.7645 12.1627 13.8352 9.57789 13.4801C9.2754 13.4385 8.8452 13.404 8.62196 13.4035C8.22623 13.4024 8.21602 13.4056 8.21602 13.5323ZM10.4505 14.8906C9.81722 15.6031 9.79506 16.6645 10.3992 17.3462C11.3154 18.3799 12.9826 17.4584 12.9826 15.9183C12.9826 15.5898 13.0344 15.5905 13.2009 15.9215C13.4418 16.4004 13.5219 17.1096 13.3974 17.6614C13.1551 18.7352 12.2276 19.6324 11.1087 19.8752C10.7339 19.9565 10.6206 19.9606 10.2707 19.9054C8.52333 19.6296 7.68929 17.8051 8.5634 16.1707C8.89423 15.5522 9.49686 15.0294 10.1574 14.788C10.6119 14.6219 10.671 14.6426 10.4505 14.8906ZM18.8675 14.8083C19.7285 15.1377 20.3561 15.8198 20.6598 16.7563C20.7878 17.151 20.7871 17.8557 20.6584 18.247C20.4798 18.7902 20.0537 19.3408 19.6041 19.6096C19.3583 19.7565 18.6596 19.951 18.3824 19.9497C18.0566 19.9481 17.4735 19.7978 17.1323 19.6275C16.0426 19.0835 15.346 17.7847 15.5431 16.6639C15.6079 16.2956 15.7766 15.8667 15.9362 15.665C16.0163 15.5638 16.019 15.569 15.99 15.7714C15.9504 16.0477 16.088 16.6459 16.2595 16.9434C16.8197 17.9149 18.0606 18.0699 18.6766 17.2453C19.1591 16.5992 19.0958 15.524 18.5372 14.8773C18.3311 14.6388 18.3915 14.6262 18.8675 14.8083Z" fill="#B11B75"/>
</svg>
