<svg width="128" height="128" viewBox="0 0 128 128" fill="none" xmlns="http://www.w3.org/2000/svg">
<path d="M66.5205 66.9182C73.6606 66.9182 79.4697 61.1649 79.4697 54.0935C79.4697 47.0221 73.6606 41.2688 66.5205 41.2688C59.3805 41.2688 53.5713 47.0221 53.5713 54.0935C53.5713 61.1649 59.3805 66.9182 66.5205 66.9182ZM66.5205 47.304C70.3005 47.304 73.376 50.3499 73.376 54.0935C73.376 57.8371 70.3005 60.8831 66.5205 60.8831C62.7406 60.8831 59.665 57.8371 59.665 54.0935C59.665 50.3497 62.7406 47.304 66.5205 47.304Z" fill="black"/>
<path d="M106.205 66.7124L101.112 63.3997L89.8286 80.4156L71.2837 74.2529L71.2823 74.2571C69.7899 73.7405 68.1885 73.456 66.5204 73.456C62.0289 73.456 58.0087 75.4931 55.3522 78.6833L55.3481 78.6799L42.668 93.2594L29.1438 82.933L25.4233 87.7129L43.5185 101.529L52.0479 91.7224V115.5H80.9933V87.7899C80.9933 86.3467 80.7747 84.9536 80.3721 83.639L92.3441 87.6173L106.205 66.7124ZM74.8993 109.465H58.1415V87.7899C58.1415 83.2143 61.9003 79.4916 66.5204 79.4916C71.1405 79.4916 74.8993 83.2143 74.8993 87.7899V109.465Z" fill="black"/>
<path d="M103.945 24.5787C103.598 17.9412 98.0656 12.6367 91.3507 12.5025C84.8266 12.3754 79.2339 17.091 78.3341 23.477C78.2518 24.0604 78.21 24.6581 78.21 25.253H84.3037C84.7681 20.9994 87.7958 18.461 91.228 18.5365C94.7638 18.6071 97.6771 21.3985 97.8601 24.8915C97.9576 26.7565 97.299 28.5267 96.0051 29.8763C94.7104 31.227 92.9635 31.9707 91.0865 31.9707H88.0396V40.0779H94.1333V37.6399C96.5154 37.0616 98.7148 35.8153 100.425 34.0317C102.88 31.47 104.131 28.1126 103.945 24.5787Z" fill="black"/>
<path d="M88.0396 46.1135H94.1333V52.1487H88.0396V46.1135Z" fill="black"/>
<path d="M41.4549 61.7351C41.0452 65.9613 37.9764 68.5216 34.5306 68.4516C30.9946 68.381 28.0813 65.5896 27.8983 62.0966C27.8006 60.2316 28.4594 58.4614 29.7533 57.1118C31.048 55.7611 32.7949 55.0174 34.6719 55.0174H37.7188V46.9102H31.6251V49.3482C29.243 49.9265 27.0436 51.173 25.3339 52.9566C22.8781 55.5181 21.6277 58.8755 21.8129 62.4094C22.1607 69.0469 27.693 74.3514 34.4079 74.4856C40.8155 74.4856 46.5367 69.8112 47.4247 63.5099C47.507 62.9254 47.5486 62.3284 47.5486 61.7353L41.4549 61.7351Z" fill="black"/>
<path d="M31.625 34.8394H37.7188V40.8745H31.625V34.8394Z" fill="black"/>
</svg>
