<svg width="121" height="100" viewBox="0 0 121 100" fill="none" xmlns="http://www.w3.org/2000/svg">
<g clip-path="url(#clip0_4305_509)">
<path d="M101.806 19.2942C93.6092 16.4358 87.1305 10.1428 84.0331 2.02795L83.3177 0.154297H37.6818L36.9664 2.02719C33.869 10.1428 27.3904 16.4358 19.1933 19.2942L17.2397 19.9746V33.5004C17.2397 46.7727 20.8881 59.781 27.7899 71.1189C34.6917 82.4559 44.5714 91.6705 56.362 97.7656L60.4998 99.9041L64.6375 97.7656C76.4274 91.6697 86.3078 82.4559 93.2096 71.1181C100.111 59.781 103.76 46.7727 103.76 33.4996V19.9746L101.806 19.2942ZM97.9364 33.4996C97.9364 58.4789 84.1518 81.1211 61.9632 92.5921L60.4998 93.3486L59.0363 92.5921C36.8477 81.1219 23.0632 58.4789 23.0632 33.4996V24.0469C31.3371 20.6032 37.9588 14.1588 41.63 5.9777H79.3695C83.04 14.1588 89.6625 20.6024 97.9356 24.0461V33.4996H97.9364Z" fill="black"/>
<path d="M76.5311 12.5082L75.6841 11.0889H45.3159L44.4689 12.5082C40.6683 18.8727 37.6744 22.3468 29.9781 26.1101L28.3457 26.9084V37.0286L28.3503 37.1937C28.8982 46.8512 31.6897 56.1883 36.4233 64.1936C41.3882 72.59 48.5229 79.5344 57.0563 84.2764L60.5 86.058L63.8668 84.3175L63.9437 84.2764C72.4771 79.5344 79.6118 72.59 84.5767 64.1936C89.3096 56.1883 92.1018 46.8512 92.6497 37.1937L92.6543 26.9084L91.0211 26.1101C83.3256 22.3468 80.3317 18.8719 76.5311 12.5082ZM60.5 52.9478C56.3265 52.9478 52.9316 49.5529 52.9316 45.3794C52.9316 41.2067 56.3273 37.8117 60.5 37.8117C64.6727 37.8117 68.0677 41.2067 68.0677 45.3794C68.0677 49.5529 64.6727 52.9478 60.5 52.9478ZM34.1691 36.9449V30.5119C41.3662 26.7128 44.959 22.7585 48.6036 16.9123H57.5883V32.311C51.6005 33.6443 47.1089 38.9959 47.1089 45.3794C47.1089 51.7637 51.6005 57.1152 57.5883 58.4486V77.8244C43.8586 69.1768 35.1676 54.0955 34.1691 36.9449ZM86.8309 36.9449C85.8324 54.0955 77.1415 69.1768 63.4117 77.8244V58.4486C69.4003 57.1152 73.8919 51.7637 73.8919 45.3794C73.8919 38.9959 69.3995 33.6443 63.4117 32.311V16.9123H72.3964C76.041 22.7585 79.6338 26.7128 86.8309 30.5119V36.9449Z" fill="black"/>
</g>
<defs>
<clipPath id="clip0_4305_509">
<rect width="121" height="100" fill="white"/>
</clipPath>
</defs>
</svg>
