<svg width="128" height="128" viewBox="0 0 128 128" fill="none" xmlns="http://www.w3.org/2000/svg">
<path d="M72.3582 86.8278V75.2027C81.9885 73.8346 89.4542 65.515 89.4542 55.4851V38.3892C89.4542 27.3907 80.5069 18.4438 69.5089 18.4438C67.5145 18.4438 65.6341 18.7288 63.8102 19.2988C58.3967 20.8943 53.8945 24.8263 51.5017 29.8412C40.9014 30.3542 32.4676 39.073 32.4676 49.7865V55.4851C32.4676 57.081 31.214 58.3345 29.6182 58.3345H15.3716V64.0331H29.6182C34.3485 64.0331 38.1662 60.2152 38.1662 55.4851V49.7865C38.1662 42.8343 43.181 37.0787 49.7347 35.7676C49.6205 36.6226 49.5635 37.5342 49.5635 38.3892V69.7318H41.0156C30.0175 69.7318 21.0702 78.6787 21.0702 89.6771C21.0702 100.676 30.0175 109.622 41.0156 109.622H52.4129C56.6299 109.622 60.5616 108.255 63.8102 105.975C68.2553 102.898 71.3328 98.1111 72.1301 92.5264H108.6V86.8278H72.3582ZM63.8102 98.1109C61.3032 101.644 57.0862 103.924 52.4129 103.924H41.0156C33.1514 103.924 26.7689 97.5413 26.7689 89.6771C26.7689 81.813 33.1514 75.4305 41.0156 75.4305H49.7917C50.8741 83.1806 56.4587 89.506 63.8102 91.6714C64.6652 91.9566 65.52 92.1845 66.4314 92.2985C66.0327 94.4642 65.1207 96.4015 63.8102 98.1109ZM66.6595 86.5428C65.6911 86.3147 64.7214 86.0298 63.8102 85.6309C59.5932 83.8073 56.4587 80.0464 55.5473 75.4305H66.6595V86.5428ZM66.6595 69.7318H55.2622V38.3892C55.2622 37.5342 55.3192 36.6796 55.4903 35.8817C58.9094 36.6226 61.8159 38.6169 63.8102 41.2955C63.8672 41.4096 63.9244 41.4662 63.9813 41.5804C65.349 43.347 66.3744 45.9114 66.5456 48.5896C66.6025 48.8177 66.6597 49.2166 66.6597 49.7865V69.7318H66.6595ZM63.8102 33.4883C61.9862 32.1206 59.8785 31.1517 57.6553 30.5248C59.1369 28.2452 61.3032 26.422 63.8102 25.3958C66.1461 24.1423 69.4519 24.1423 69.5089 24.1423C77.373 24.1423 83.7555 30.5248 83.7555 38.389V55.485C83.7555 62.3805 78.8547 68.1358 72.3582 69.4467V49.7863C72.3582 49.0455 72.3012 48.1905 72.244 47.3359C71.5604 42.1501 68.825 37.1356 63.8102 33.4883Z" fill="black"/>
<path d="M102.066 79.0485L98.037 83.0777L101.721 86.7618H72.358V75.1368C81.9884 73.7687 89.454 65.4491 89.454 55.4192V38.3232C89.454 27.3248 80.5068 18.3779 69.5087 18.3779C67.5144 18.3779 65.634 18.6629 63.8101 19.2329V25.3301C66.1459 24.0766 69.4517 24.0766 69.5087 24.0766C77.3729 24.0766 83.7554 30.4591 83.7554 38.3232V55.4192C83.7554 62.3148 78.8545 68.0701 72.358 69.3809V49.7206C72.358 48.9797 72.3011 48.1247 72.2439 47.2701C71.56 42.0842 68.8249 37.0697 63.8101 33.4224V41.2296C63.867 41.3437 63.9242 41.4003 63.9812 41.5145C65.3489 43.2811 66.3743 45.8455 66.5454 48.5237C66.6024 48.7518 66.6596 49.1507 66.6596 49.7206V69.6659H63.8102V75.3645H66.6596V86.4769C65.6912 86.2488 64.7215 85.9639 63.8102 85.5649V91.6055C64.6652 91.8906 65.52 92.1186 66.4314 92.2326C66.0329 94.3981 65.1209 96.3354 63.8102 98.045V105.909C68.2554 102.832 71.3329 98.045 72.1301 92.4603H101.721L98.037 96.1445L102.066 100.174L112.629 89.611L102.066 79.0485Z" fill="black"/>
</svg>
