<svg width="368" height="25" viewBox="0 0 368 25" fill="none" xmlns="http://www.w3.org/2000/svg">
<rect opacity="0.3" x="0.693359" y="14.4723" width="7.05029" height="10.0717" fill="#2671B2"/>
<rect opacity="0.3" x="184" y="14.4723" width="7.05029" height="10.0717" fill="#2671B2"/>
<rect x="134.648" y="14.4723" width="7.05029" height="10.0717" fill="#2671B2"/>
<rect x="317.955" y="14.4723" width="7.05029" height="10.0717" fill="#2671B2"/>
<rect opacity="0.3" x="85.2964" y="6.60092" width="7.05029" height="4.68887" fill="#2671B2"/>
<rect opacity="0.3" x="268.603" y="6.60092" width="7.05029" height="4.68887" fill="#2671B2"/>
<rect x="85.2969" y="7.23611" width="7.05029" height="4.68887" transform="rotate(180 85.2969 7.23611)" fill="#2671B2"/>
<rect x="268.604" y="7.23611" width="7.05029" height="4.68887" transform="rotate(180 268.604 7.23611)" fill="#2671B2"/>
<rect x="21.8442" y="4.4006" width="7.05029" height="10.0717" fill="#2671B2"/>
<rect x="205.151" y="4.4006" width="7.05029" height="10.0717" fill="#2671B2"/>
<rect opacity="0.3" x="155.799" y="4.4006" width="7.05029" height="10.0717" fill="#2671B2"/>
<rect opacity="0.3" x="339.106" y="4.4006" width="7.05029" height="10.0717" fill="#2671B2"/>
<rect width="7.05029" height="7.87134" transform="matrix(1 0 0 -1 106.447 17.9168)" fill="#2671B2"/>
<rect width="7.05029" height="7.87134" transform="matrix(1 0 0 -1 289.754 17.9168)" fill="#2671B2"/>
<rect opacity="0.3" x="64.146" y="12.9619" width="7.05029" height="5.72583" transform="rotate(180 64.146 12.9619)" fill="#2671B2"/>
<rect opacity="0.3" x="247.453" y="12.9619" width="7.05029" height="5.72583" transform="rotate(180 247.453 12.9619)" fill="#2671B2"/>
<rect x="7.74365" width="7.05029" height="14.4723" fill="#2671B2"/>
<rect x="191.05" y="10.0455" width="7.05029" height="4.42676" fill="#2671B2"/>
<rect opacity="0.3" x="141.699" width="7.05029" height="14.4723" fill="#2671B2"/>
<rect opacity="0.3" x="325.005" width="7.05029" height="14.4723" fill="#2671B2"/>
<rect width="7.05029" height="13.2541" transform="matrix(1 0 0 -1 92.3467 24.5439)" fill="#2671B2"/>
<rect width="7.05029" height="13.2541" transform="matrix(1 0 0 -1 275.653 24.5439)" fill="#2671B2"/>
<rect opacity="0.3" x="78.2466" y="17.7522" width="7.05029" height="10.5161" transform="rotate(180 78.2466 17.7522)" fill="#2671B2"/>
<rect opacity="0.3" x="261.553" y="17.7522" width="7.05029" height="10.5161" transform="rotate(180 261.553 17.7522)" fill="#2671B2"/>
<rect opacity="0.3" x="28.8945" y="14.4723" width="7.05029" height="4.68887" fill="#2671B2"/>
<rect opacity="0.3" x="212.201" y="14.4723" width="7.05029" height="4.68887" fill="#2671B2"/>
<rect x="162.85" y="14.4723" width="7.05029" height="4.68887" fill="#2671B2"/>
<rect x="346.156" y="14.4723" width="7.05029" height="4.68887" fill="#2671B2"/>
<rect opacity="0.3" x="113.498" y="6.60092" width="7.05029" height="4.68887" fill="#2671B2"/>
<rect opacity="0.3" x="296.804" y="6.60092" width="7.05029" height="4.68887" fill="#2671B2"/>
<rect x="57.0957" y="7.23611" width="7.05029" height="4.68887" transform="rotate(180 57.0957 7.23611)" fill="#2671B2"/>
<rect x="240.402" y="7.23611" width="7.05029" height="4.68887" transform="rotate(180 240.402 7.23611)" fill="#2671B2"/>
<rect opacity="0.3" width="7.05029" height="3.27997" transform="matrix(1 0 0 -1 14.7939 17.7522)" fill="#2671B2"/>
<rect opacity="0.3" width="7.05029" height="3.27997" transform="matrix(1 0 0 -1 198.101 17.7522)" fill="#2671B2"/>
<rect width="7.05029" height="3.27997" transform="matrix(1 0 0 -1 148.749 17.7522)" fill="#2671B2"/>
<rect width="7.05029" height="3.27997" transform="matrix(1 0 0 -1 332.056 17.7522)" fill="#2671B2"/>
<rect opacity="0.3" width="7.05029" height="3.27997" transform="matrix(1 0 0 -1 99.397 9.88089)" fill="#2671B2"/>
<rect opacity="0.3" width="7.05029" height="3.27997" transform="matrix(1 0 0 -1 282.704 9.88089)" fill="#2671B2"/>
<rect width="7.05029" height="3.27997" transform="matrix(-1 0 0 1 71.1963 3.95615)" fill="#2671B2"/>
<rect width="7.05029" height="3.27997" transform="matrix(-1 0 0 1 254.503 3.95615)" fill="#2671B2"/>
<rect width="7.05029" height="3.27997" transform="matrix(1 0 0 -1 35.9448 14.4723)" fill="#2671B2"/>
<rect width="7.05029" height="3.27997" transform="matrix(1 0 0 -1 219.251 14.4723)" fill="#2671B2"/>
<rect opacity="0.3" width="7.05029" height="3.27997" transform="matrix(1 0 0 -1 169.9 14.4723)" fill="#2671B2"/>
<rect opacity="0.3" width="7.05029" height="3.27997" transform="matrix(1 0 0 -1 353.207 14.4723)" fill="#2671B2"/>
<rect width="7.05029" height="3.27997" transform="matrix(1 0 0 -1 120.548 6.60092)" fill="#2671B2"/>
<rect width="7.05029" height="3.27997" transform="matrix(1 0 0 -1 303.854 6.60092)" fill="#2671B2"/>
<rect opacity="0.3" width="7.05029" height="3.27997" transform="matrix(-1 0 0 1 50.0454 7.23611)" fill="#2671B2"/>
<rect opacity="0.3" width="7.05029" height="3.27997" transform="matrix(-1 0 0 1 233.352 7.23611)" fill="#2671B2"/>
<rect width="7.05029" height="7.23615" transform="matrix(-1 0 0 1 184 7.23611)" fill="#2671B2"/>
<rect width="7.05029" height="3.27997" transform="matrix(-1 0 0 1 367.307 7.23611)" fill="#2671B2"/>
<rect opacity="0.3" width="7.05029" height="7.23611" transform="matrix(-1 0 0 1 134.648 7.23615)" fill="#2671B2"/>
<rect opacity="0.3" width="7.05029" height="7.23611" transform="matrix(-1 0 0 1 317.955 7.23615)" fill="#2671B2"/>
</svg>
